<svg xmlns="http://www.w3.org/2000/svg" width="70" height="70" viewBox="0 0 70 70">
    <g fill="#337AB7" fill-rule="evenodd">
        <path d="M9.388 63.632h50.51v-2.587H9.388v2.587zm33.086-20.266H26.575c-.703 0-1.194.491-1.194 1.194v14.098H13.362V7.388h42.561v51.27H43.667V44.56c0-.703-.491-1.194-1.193-1.194zM27.768 58.658h5.562V45.754h-5.562v12.904zm7.949 0h5.562V45.754h-5.562v12.904zm25.374 0h-2.78V6.194c0-.703-.492-1.194-1.195-1.194H12.169c-.703 0-1.194.491-1.194 1.194v52.464H8.194c-.703 0-1.194.491-1.194 1.194v4.974c0 .703.491 1.194 1.194 1.194h52.897c.703 0 1.194-.491 1.194-1.194v-4.974c0-.703-.491-1.194-1.194-1.194z"/>
        <path d="M21.497 26.86h7.929v-3.574h-7.929v3.574zm9.123-5.962H20.303c-.702 0-1.194.492-1.194 1.194v5.963c0 .702.492 1.194 1.194 1.194H30.62c.702 0 1.193-.492 1.193-1.194v-5.963c0-.702-.491-1.194-1.193-1.194zM39.848 26.86h7.93v-3.574h-7.93v3.574zm-1.195 2.389h10.318c.702 0 1.193-.492 1.193-1.194v-5.963c0-.702-.491-1.194-1.193-1.194H38.653c-.702 0-1.193.492-1.193 1.194v5.963c0 .702.491 1.194 1.193 1.194zM21.497 37.791h7.929v-3.574h-7.929v3.574zm9.123-5.962H20.303c-.702 0-1.194.491-1.194 1.194v5.962c0 .702.492 1.194 1.194 1.194H30.62c.702 0 1.193-.492 1.193-1.194v-5.962c0-.703-.491-1.194-1.193-1.194zM39.847 37.791h7.93v-3.574h-7.93v3.574zm10.317 1.194v-5.962c0-.703-.491-1.194-1.193-1.194H38.653c-.702 0-1.193.491-1.193 1.194v5.962c0 .702.491 1.194 1.193 1.194h10.318c.702 0 1.193-.492 1.193-1.194zM21.497 15.93h7.929v-3.574h-7.929v3.574zm9.123-5.962H20.303c-.702 0-1.194.491-1.194 1.194v5.962c0 .703.492 1.194 1.194 1.194H30.62c.702 0 1.193-.491 1.193-1.194v-5.962c0-.703-.491-1.194-1.193-1.194zM39.848 15.93h7.93v-3.574h-7.93v3.574zm-1.195 2.388h10.318c.702 0 1.193-.491 1.193-1.194v-5.962c0-.703-.491-1.194-1.193-1.194H38.653c-.702 0-1.193.491-1.193 1.194v5.962c0 .703.491 1.194 1.193 1.194z"/>
    </g>
</svg>
