<svg xmlns="http://www.w3.org/2000/svg" xmlns:xlink="http://www.w3.org/1999/xlink" width="70" height="70" viewBox="0 0 70 70">
    <defs>
        <path id="a" d="M0 .119h58.131v33.82H0z"/>
        <path id="c" d="M0 .119h58.131v33.82H0z"/>
        <path id="e" d="M0 .935h58.131v8.426H.001z"/>
    </defs>
    <g fill="none" fill-rule="evenodd">
        <path fill="#E8EDEE" d="M47.313 63.213h-24.13a4.02 4.02 0 0 1 4.022-4.022H43.29c2.222 0 4.022 1.8 4.022 4.022"/>
        <path fill="#B0B6BB" d="M42.033 59.598H27.957l2.01-8.044h10.056z"/>
        <g transform="translate(6 9)">
            <mask id="b" fill="#fff">
                <use xlink:href="#a"/>
            </mask>
            <path fill="#475D6B" d="M58.131 33.94H0V3.6C0 1.679 1.57.12 3.508.12h51.114c1.939 0 3.509 1.559 3.509 3.482v30.338z" mask="url(#b)"/>
        </g>
        <g transform="translate(6 9)">
            <mask id="d" fill="#fff">
                <use xlink:href="#c"/>
            </mask>
            <path fill="#2B4451" d="M58.131 33.94H0V3.6C0 1.679 1.57.12 3.508.12h10.173v33.82h44.45z" mask="url(#d)"/>
        </g>
        <g transform="translate(6 42)">
            <mask id="f" fill="#fff">
                <use xlink:href="#e"/>
            </mask>
            <path fill="#E8EDEE" d="M54.623 9.361H3.508C1.57 9.361 0 7.711 0 5.674V.935h58.131v4.74c0 2.036-1.57 3.686-3.508 3.686" mask="url(#f)"/>
        </g>
        <path fill="#26B99A" d="M26.228 14.553h-.066a1.07 1.07 0 0 1 0-2.14h.066a1.07 1.07 0 0 1 0 2.14M33.021 14.553h-3.995a1.07 1.07 0 0 1 0-2.14h3.995a1.07 1.07 0 0 1 0 2.14"/>
        <path fill="#FAA330" d="M26.228 18.372h-.066a1.07 1.07 0 0 1 0-2.14h.066a1.07 1.07 0 0 1 0 2.14M37.965 18.372h-8.939a1.07 1.07 0 1 1 0-2.14h8.94a1.07 1.07 0 0 1 0 2.14M41.502 18.372h-.066a1.07 1.07 0 0 1 0-2.14h.066a1.07 1.07 0 0 1 0 2.14M56.776 18.372h-.065a1.07 1.07 0 1 1 0-2.14h.065a1.07 1.07 0 0 1 0 2.14M54.194 18.372h-8.939a1.07 1.07 0 1 1 0-2.14h8.94a1.07 1.07 0 0 1 0 2.14M26.228 22.19h-.066a1.07 1.07 0 0 1 0-2.14h.066a1.069 1.069 0 1 1 0 2.14M35.494 22.19h-6.467a1.07 1.07 0 1 1 0-2.14h6.467a1.07 1.07 0 1 1 0 2.14M26.228 25.055h-.066a1.07 1.07 0 0 1 0-2.14h.066a1.07 1.07 0 0 1 0 2.14M46.075 25.055H35.71a1.07 1.07 0 1 1 0-2.14h10.365a1.07 1.07 0 0 1 0 2.14M32.07 25.055h-3.043a1.07 1.07 0 1 1 0-2.14h3.043a1.07 1.07 0 0 1 0 2.14"/>
        <path fill="#26B99A" d="M26.228 28.872h-.066a1.07 1.07 0 0 1 0-2.139h.066a1.07 1.07 0 0 1 0 2.14M37.965 28.872h-8.939a1.069 1.069 0 1 1 0-2.139h8.94a1.07 1.07 0 1 1 0 2.14M26.228 32.691h-.066a1.07 1.07 0 0 1 0-2.14h.066a1.069 1.069 0 1 1 0 2.14M37.965 32.691h-8.939a1.069 1.069 0 1 1 0-2.14h8.94a1.07 1.07 0 1 1 0 2.14"/>
        <path fill="#FF8980" d="M26.228 36.51h-.066a1.07 1.07 0 0 1 0-2.14h.066a1.07 1.07 0 0 1 0 2.14M46.803 36.51h-3.456a1.07 1.07 0 1 1 0-2.14h3.456a1.07 1.07 0 0 1 0 2.14M57.305 36.51h-3.457a1.07 1.07 0 0 1 0-2.14h3.457a1.07 1.07 0 1 1 0 2.14M39.583 36.51H29.026a1.07 1.07 0 0 1 0-2.14h10.557a1.07 1.07 0 1 1 0 2.14M26.228 39.374h-.066a1.07 1.07 0 0 1 0-2.14h.066a1.069 1.069 0 1 1 0 2.14M37.965 39.374h-8.939a1.069 1.069 0 1 1 0-2.14h8.94a1.07 1.07 0 1 1 0 2.14M41.501 39.374h-.065a1.069 1.069 0 1 1 0-2.14h.065a1.069 1.069 0 1 1 0 2.14"/>
        <path fill="#26B99A" d="M36.73 14.553h-.066a1.07 1.07 0 0 1 0-2.14h.065a1.07 1.07 0 1 1 0 2.14"/>
        <path fill="#FAA330" d="M38.637 22.19h-.064a1.07 1.07 0 1 1 0-2.14h.064a1.07 1.07 0 1 1 0 2.14"/>
        <path fill="#FF8980" d="M44.366 39.374h-.065a1.07 1.07 0 1 1 0-2.14h.065a1.07 1.07 0 1 1 0 2.14M50.094 36.51h-.066a1.07 1.07 0 0 1 0-2.14h.066a1.07 1.07 0 0 1 0 2.14"/>
        <path fill="#26B99A" d="M41.502 32.691h-.066a1.069 1.069 0 1 1 0-2.14h.066a1.07 1.07 0 0 1 0 2.14M41.502 28.872h-.066a1.069 1.069 0 1 1 0-2.139h.066a1.07 1.07 0 0 1 0 2.14M44.366 32.691h-.065a1.07 1.07 0 1 1 0-2.14h.065a1.07 1.07 0 1 1 0 2.14M47.23 32.691h-.066a1.069 1.069 0 1 1 0-2.14h.065a1.07 1.07 0 1 1 0 2.14M50.093 32.691h-.065a1.069 1.069 0 1 1 0-2.14h.065a1.069 1.069 0 1 1 0 2.14"/>
        <path fill="#475D6B" d="M37.089 48.005a2.18 2.18 0 1 1-4.359 0 2.18 2.18 0 0 1 4.359 0"/>
    </g>
</svg>
