<?xml version="1.0" encoding="UTF-8"?>
<svg width="340px" height="318px" viewBox="0 0 340 318" version="1.1" xmlns="http://www.w3.org/2000/svg" xmlns:xlink="http://www.w3.org/1999/xlink">
    <title>feature-01</title>
    <defs>
        <polygon id="path-1" points="0 0.6965 339.918559 0.6965 339.918559 198.642971 0 198.642971"></polygon>
        <polygon id="path-3" points="0 0.6965 339.918559 0.6965 339.918559 198.642971 0 198.642971"></polygon>
        <polygon id="path-5" points="0 0.5165 339.918559 0.5165 339.918559 50.2299 0.00584745763 50.2299"></polygon>
    </defs>
    <g id="Page-1" stroke="none" stroke-width="1" fill="none" fill-rule="evenodd">
        <g id="feature-01">
            <path d="M242,318 L101,318 C100.996901,311.633834 103.471995,305.5275 107.880138,301.025941 C112.288281,296.524381 118.267896,293.996835 124.50195,294 L218.492209,294 C231.47613,294 241.994157,304.740927 241.994157,318" id="Path" fill="#E8EDEE" fill-rule="nonzero"></path>
            <polygon id="Path" fill="#B0B6BB" fill-rule="nonzero" points="211 296 129 296 140.709292 249 199.290708 249"></polygon>
            <g id="Clipped">
                <mask id="mask-2" fill="white">
                    <use xlink:href="#path-1"></use>
                </mask>
                <g id="a"></g>
                <path d="M339.918559,198.648824 L0,198.648824 L0,21.0705882 C0,9.82708824 9.18050847,0.702352941 20.5128814,0.702352941 L319.399831,0.702352941 C330.738051,0.702352941 339.918559,9.82708824 339.918559,21.0822941 L339.918559,198.648824 Z" id="Path" fill="#475D6B" fill-rule="nonzero" mask="url(#mask-2)"></path>
            </g>
            <g id="Clipped">
                <mask id="mask-4" fill="white">
                    <use xlink:href="#path-3"></use>
                </mask>
                <g id="c"></g>
            </g>
            <g id="Clipped" transform="translate(0.000000, 198.000000)">
                <mask id="mask-6" fill="white">
                    <use xlink:href="#path-5"></use>
                </mask>
                <g id="e"></g>
                <path d="M319.405678,50.2299 L20.5128814,50.2299 C9.18050847,50.2299 0,40.4949 0,28.4766 L0,0.5165 L339.918559,0.5165 L339.918559,28.4825 C339.918559,40.4949 330.738051,50.2299 319.405678,50.2299" id="Path" fill="#E8EDEE" fill-rule="nonzero" mask="url(#mask-6)"></path>
            </g>
            <path d="M181.997121,228.721587 C182.09413,233.431339 179.733636,237.827155 175.82712,240.211638 C171.920603,242.596121 167.079397,242.596121 163.17288,240.211638 C159.266364,237.827155 156.90587,233.431339 157.002879,228.721587 C157.148494,221.652003 162.70077,216 169.5,216 C176.29923,216 181.851506,221.652003 181.997121,228.721587" id="Path" fill="#475D6B" fill-rule="nonzero"></path>
            <g id="Group" transform="translate(116.000000, 46.000000)" fill="#FF8980" fill-rule="nonzero">
                <path d="M82,40.6147459 L97.7498184,33 L103,38.3845247 L87.249455,46 L82,40.6147459 Z M71,30.5991224 L92.6010464,9 L98,14.3994149 L76.3989536,36 L71,30.5991224 Z M61,19.5009622 L68.6142733,3 L74,8.50139659 L66.3826214,25 L61,19.5009622 Z M68.7044225,86.8614087 L72.9541591,92.0067835 C76.0271559,95.1197862 80.9839254,95.1044276 84.0322008,91.9645167 L92.348612,83.4604017 C95.3968874,80.3282314 95.3729076,75.2320042 92.3037426,72.1343602 L88.0446117,66.987511 C85.8694971,64.7861945 82.7377869,63.6602252 80.0024847,64.5995568 L71.3738418,55.7190949 C77.4811464,49.4531572 87.4195304,49.4247744 93.5508149,55.6477081 L103.376346,66.439885 C109.515417,72.6758427 109.545454,82.8106718 103.440498,89.0843503 L89.6196139,103.290558 C83.5215798,109.541997 73.588511,109.577998 67.4402924,103.348921 L57.6178519,92.5558839 C51.4865675,86.3121853 51.4587559,76.1850971 57.5467778,69.9198965 L66.2024907,78.6245333 C65.4931093,81.3020892 66.6281935,84.7531038 68.7044225,86.8614087 Z M41.9303733,28.8842635 C42.803115,26.1542569 41.7326968,23.0272608 39.6026093,20.8676045 L36.4098871,15.672782 C33.377777,12.6178767 28.5113528,12.6323439 25.5217432,15.709563 L17.3783373,24.0566379 C14.3847742,27.1322631 14.3979938,32.0802853 17.4099655,35.1420564 L20.6026877,40.345216 L26.9851669,44.8364185 C29.009374,46.8835251 25.9532957,43.5143876 28.5306263,42.7939709 L36.9520147,51.3732563 C30.9610585,57.517641 21.2206737,57.5452267 15.1919118,51.437623 L6.54653105,40.7169492 C0.50776185,34.6093453 0.483793505,24.6835085 6.479321,18.5475834 L20.0381978,4.62255059 C26.0399028,-1.50724435 35.788071,-1.55015547 41.8022543,4.55045988 L50.4699971,15.2917311 C56.4902342,21.3854806 56.5111138,31.3259074 50.5255937,37.456438 L41.9303733,28.8842635 Z M21,67.384952 L5.25018163,75 L0,69.615048 L15.750545,62 L21,67.384952 Z M32,77.3992442 L10.399701,99 L5,93.6007558 L26.6010464,72 L32,77.3992442 Z M43,87.5006517 L35.5469244,104 L30,98.5002173 L37.4489794,82 L43,87.5006517 Z" id="Shape"></path>
            </g>
        </g>
    </g>
</svg>