<svg xmlns="http://www.w3.org/2000/svg" xmlns:xlink="http://www.w3.org/1999/xlink" width="70" height="70" viewBox="0 0 70 70">
    <defs>
        <path id="a" d="M0 .896h56.596v3.819H0z"/>
    </defs>
    <g fill="none" fill-rule="evenodd">
        <path fill="#C8C8C8" d="M8.909 11.459h52.778V6H8.909z"/>
        <path fill="#FFF" d="M10.729 49.676h49.137V11.459H10.729z"/>
        <path fill="#ACAFAF" d="M41.701 40.232H28.052a.909.909 0 1 1 0-1.82h13.65c.501 0 .908.406.908.91s-.407.91-.909.91M41.701 43.678H28.052a.909.909 0 1 1 0-1.82h13.65a.91.91 0 0 1 0 1.82M50.37 36.593H20.05a.909.909 0 1 1 0-1.82h30.32a.91.91 0 1 1 0 1.82"/>
        <path fill="#26B99A" d="M35.298 14.645a8.86 8.86 0 0 1 8.86 8.86 8.86 8.86 0 1 1-17.72 0 8.86 8.86 0 0 1 8.86-8.86"/>
        <path fill="#F3D55B" d="M34.888 14.655l-.012.013v9.228a.03.03 0 0 0 .032.031h9.229l.012-.01a8.86 8.86 0 0 0-9.261-9.262"/>
        <path fill="#C8C8C8" d="M61.687 50.585H8.91a.909.909 0 1 1 0-1.819h52.776c.504 0 .91.406.91.91a.907.907 0 0 1-.91.909"/>
        <g transform="translate(7 46.87)">
            <mask id="b" fill="#fff">
                <use xlink:href="#a"/>
            </mask>
            <path fill="#C8C8C8" d="M54.687 4.715H1.91A1.912 1.912 0 0 1 0 2.805C0 1.753.857.896 1.91.896h52.776a1.91 1.91 0 0 1 0 3.819" mask="url(#b)"/>
        </g>
        <path fill="#C8C8C8" d="M35.209 55.293c-.62 0-1.123-.502-1.123-1.124v-3.37a1.123 1.123 0 1 1 2.247 0v3.37c0 .622-.502 1.124-1.124 1.124"/>
        <path fill="#C8C8C8" d="M35.209 50.176a.623.623 0 0 0-.623.623v3.37a.624.624 0 1 0 1.247 0v-3.37a.624.624 0 0 0-.624-.623m0 5.617a1.625 1.625 0 0 1-1.623-1.624v-3.37c0-.894.728-1.623 1.623-1.623.896 0 1.624.729 1.624 1.623v3.37c0 .896-.728 1.624-1.624 1.624"/>
        <path fill="#C8C8C8" d="M35.209 63.37a4.498 4.498 0 0 1-4.493-4.493 4.497 4.497 0 0 1 4.493-4.494 4.497 4.497 0 0 1 4.494 4.494 4.498 4.498 0 0 1-4.494 4.493m0-6.74a2.25 2.25 0 0 0-2.246 2.247 2.248 2.248 0 0 0 2.246 2.246 2.249 2.249 0 0 0 2.247-2.246 2.25 2.25 0 0 0-2.247-2.247"/>
        <path fill="#C8C8C8" d="M35.209 57.13a1.748 1.748 0 1 0 1.747 1.747 1.75 1.75 0 0 0-1.747-1.747m0 4.493a2.748 2.748 0 0 1-2.746-2.746 2.749 2.749 0 0 1 2.746-2.747 2.75 2.75 0 0 1 2.747 2.747 2.749 2.749 0 0 1-2.747 2.746m0-6.74a3.998 3.998 0 0 0-3.993 3.994 3.997 3.997 0 0 0 3.993 3.993 3.998 3.998 0 0 0 3.994-3.993 3.999 3.999 0 0 0-3.994-3.994m0 8.987a4.999 4.999 0 0 1-4.993-4.993 5 5 0 0 1 4.993-4.994 5 5 0 0 1 4.994 4.994 5 5 0 0 1-4.994 4.993"/>
    </g>
</svg>
