<?xml version="1.0" encoding="UTF-8"?>
<svg width="155px" height="174px" viewBox="0 0 155 174" version="1.1" xmlns="http://www.w3.org/2000/svg" xmlns:xlink="http://www.w3.org/1999/xlink">
    <title>Group</title>
    <g id="Page-1" stroke="none" stroke-width="1" fill="none" fill-rule="evenodd">
        <g id="Group" fill-rule="nonzero">
            <path d="M0,105.742188 L0,140.605469 C0.29296875,158.90625 30.4101562,173.710938 77.1484375,173.710938 C123.886719,173.710938 153.984375,158.90625 154.296875,140.605469 L154.296875,105.742188 L0,105.742188 Z" id="Path" fill="#1B9BDB"></path>
            <path d="M154.296875,105.605469 C154.296875,125.019531 124.0625,140.761719 77.1484375,140.761719 C30.234375,140.761719 0,125.019531 0,105.605469 C0,86.1914063 30.234375,70.4492188 77.1484375,70.4492188 C124.0625,70.4492188 154.296875,86.171875 154.296875,105.605469 Z" id="Path" fill="#FFFFFF"></path>
            <path d="M0,70.5859375 L0,101.542969 C0.29296875,119.84375 30.4101562,136.601562 77.1484375,136.601562 C123.886719,136.601562 153.984375,119.84375 154.296875,101.542969 L154.296875,70.5859375 L0,70.5859375 Z" id="Path" fill="#1B9BDB"></path>
            <path d="M154.296875,70.4492187 C154.296875,89.8632812 124.0625,105.605469 77.1484375,105.605469 C30.234375,105.605469 0,89.8632812 0,70.4492188 C0,51.0351562 30.234375,35.2929688 77.1484375,35.2929688 C124.0625,35.2929688 154.296875,51.015625 154.296875,70.4492187 Z" id="Path" fill="#FFFFFF"></path>
            <path d="M0,35.4296875 L0,66.3867188 C0.29296875,84.6875 30.4101562,101.445312 77.1484375,101.445312 C123.886719,101.445312 153.984375,84.6875 154.296875,66.3867188 L154.296875,35.4296875 L0,35.4296875 Z" id="Path" fill="#1B9BDB"></path>
            <path d="M154.296875,35.2929688 C154.296875,54.7070313 124.0625,70.4492188 77.1484375,70.4492188 C30.234375,70.4492188 0,54.7070313 0,35.2929688 C0,15.8789062 30.234375,0.13671875 77.1484375,0.13671875 C124.0625,0.13671875 154.296875,15.859375 154.296875,35.2929688 Z" id="Path" fill="#3ED6FF"></path>
        </g>
    </g>
</svg>