<?xml version="1.0" encoding="UTF-8"?>
<svg width="200px" height="180px" viewBox="0 0 200 180" version="1.1" xmlns="http://www.w3.org/2000/svg" xmlns:xlink="http://www.w3.org/1999/xlink">
    <title>Group</title>
    <g id="Page-1" stroke="none" stroke-width="1" fill="none" fill-rule="evenodd">
        <g id="Group" fill-rule="nonzero">
            <path d="M3.90624238,19.5319732 L175.780907,19.5319732 L175.780907,11.3042549 C175.780907,7.23551289 172.452007,3.90661309 168.383265,3.90661309 L11.3038842,3.90661309 C7.23514219,3.90661309 3.90624238,7.23551289 3.90624238,11.3042549 L3.90624238,19.5319732 Z" id="Path" fill="#CDD3E0"></path>
            <path d="M175.780907,19.5319732 L3.90624238,19.5319732 L3.90624238,114.042336 L47.6569381,114.042336 L47.6569381,74.1873354 C47.6569381,69.8904688 51.1725562,66.3748506 55.4694229,66.3748506 L175.780907,66.3748506 L175.780907,19.5319732 Z" id="Path" fill="#99EBFB"></path>
            <path d="M47.6569381,114.042336 L3.90624238,114.042336 L3.90624238,122.270054 C3.90624238,126.338796 7.23514219,129.667696 11.3038842,129.667696 L47.6569381,129.667696 L47.6569381,114.042336 Z M47.6569381,82.0002105 L76.5068818,82.0002105 L76.5068818,66.3752412 L55.4694229,66.3752412 C51.1725563,66.3752412 47.6569381,69.8908594 47.6569381,74.187726 L47.6569381,82.0002105 L47.6569381,82.0002105 Z" id="Shape" fill="#CDD3E0"></path>
            <path d="M76.5064912,66.3752412 L103.180267,66.3752412 L103.180267,82.0002105 L76.5064912,82.0002105 L76.5064912,66.3752412 Z M103.180267,66.3752412 L103.180267,82.0002105 L188.281273,82.0002105 L188.281273,74.1873354 C188.281273,69.8904688 184.765655,66.3748506 180.468788,66.3748506 L103.180267,66.3748506 L103.180267,66.3752412 Z" id="Shape" fill="#CDD3E0"></path>
            <polygon id="Path" fill="#CFCDF5" points="188.281273 82.0002105 47.6569381 82.0002105 47.6569381 160.155917 188.281273 160.155917"></polygon>
            <path d="M188.281273,160.155917 L39.8440629,160.155917 L39.8440629,167.968402 C39.8440629,172.265269 43.3596811,175.780887 47.6565475,175.780887 L188.281273,175.780887 C192.578139,175.780887 196.093758,172.265269 196.093758,167.968402 L196.093758,160.155917 L188.281273,160.155917 Z" id="Path" fill="#CDD3E0"></path>
            <path d="M196.093758,156.249675 L192.187515,156.249675 L192.187515,74.1873354 C192.187515,67.7256293 186.930494,62.4689988 180.468788,62.4689988 L179.687149,62.4689988 L179.687149,11.3038643 C179.687149,5.07106406 174.616456,-1.9921875e-05 168.383265,-1.9921875e-05 L11.3038842,-1.9921875e-05 C5.07069316,-1.9921875e-05 0,5.07106406 0,11.3038643 L0,122.270054 C0,128.503245 5.07069316,133.574329 11.3038842,133.574329 L43.7506957,133.574329 L43.7506957,156.249675 L39.8444535,156.249675 C37.6870359,156.249675 35.9382111,157.99889 35.9382111,160.155917 L35.9382111,167.968793 C35.9382111,174.430499 41.195232,179.687129 47.6569381,179.687129 L188.281663,179.687129 C194.74337,179.687129 200,174.430499 200,167.968793 L200,160.155917 C200,157.99889 198.251175,156.249675 196.093758,156.249675 Z M184.37503,74.1873354 L184.37503,78.0939682 L107.08651,78.0939682 L107.08651,70.2814836 L180.468788,70.2814836 C182.623081,70.2814836 184.37503,72.0334332 184.37503,74.1873354 L184.37503,74.1873354 Z M80.4127336,70.2814836 L99.2740248,70.2814836 L99.2740248,78.0939682 L80.4127336,78.0939682 L80.4127336,70.2814836 Z M72.6002488,78.0939682 L51.5631805,78.0939682 L51.5631805,74.1873354 C51.5631805,72.0334334 53.3155207,70.2814836 55.4694229,70.2814836 L72.6002488,70.2814836 L72.6002488,78.0939682 Z M11.3038842,7.81285547 L168.383265,7.81285547 C170.308261,7.81285547 171.874664,9.37925859 171.874664,11.3042549 L171.874664,15.6257309 L46.875299,15.6257309 C44.7178814,15.6257309 42.9690566,17.3749463 42.9690566,19.5319732 C42.9690566,21.6890002 44.7178814,23.4382156 46.875299,23.4382156 L171.874664,23.4382156 L171.874664,62.4689988 L107.08651,62.4689988 L107.08651,54.6893266 C107.08651,52.5322996 105.337685,50.7830842 103.180267,50.7830842 C101.02285,50.7830842 99.2740248,52.5322996 99.2740248,54.6893266 L99.2740248,62.4689988 L80.4127336,62.4689988 L80.4127336,48.494026 L84.7928031,52.8744863 C86.3181908,54.3994834 88.7916234,54.3994834 90.3170111,52.8744863 C91.8423988,51.3490986 91.8423988,48.875666 90.3170111,47.3498877 L79.2685951,36.3014717 C77.7431187,34.7760246 75.2698638,34.7760246 73.7443873,36.3014717 L62.6959713,47.3498877 C61.1705836,48.8752754 61.1705836,51.348708 62.6963619,52.8744863 C63.4282305,53.6080737 64.4222319,54.019816 65.4584658,54.0186246 C66.4947169,54.0199025 67.4887503,53.608147 68.2205699,52.8744863 L72.6002488,48.4944166 L72.6002488,62.4693895 L55.4694229,62.4693895 C49.0077168,62.4693895 43.7506957,67.7260197 43.7506957,74.187726 L43.7506957,110.136484 L7.81248477,110.136484 L7.81248477,23.4382156 L11.7187271,23.4382156 C13.8761447,23.4382156 15.6249695,21.6890002 15.6249695,19.5319732 C15.6249695,17.3749463 13.8761447,15.6257309 11.7187271,15.6257309 L7.81248477,15.6257309 L7.81248477,11.3038643 C7.81248477,9.37925859 9.37888789,7.81285547 11.3038842,7.81285547 Z M11.3038842,125.761844 C9.37888789,125.761844 7.81248477,124.195441 7.81248477,122.270054 L7.81248477,117.948578 L43.7506957,117.948578 L43.7506957,125.761844 L11.3038842,125.761844 Z M51.5627898,85.9064529 L72.5998582,85.9064529 L72.5998582,94.3064365 C72.5998582,96.4634635 74.348683,98.2126789 76.5061006,98.2126789 C78.6635182,98.2126789 80.412343,96.4634635 80.412343,94.3064365 L80.412343,85.9064529 L99.2736342,85.9064529 L99.2736342,100.501346 L94.8935646,96.1212768 C93.368177,94.5962797 90.8947443,94.5962797 89.3693566,96.1212768 C87.8439689,97.6466645 87.8439689,100.120097 89.3697473,101.645875 L100.418163,112.693901 C101.150032,113.427488 102.144033,113.83923 103.180267,113.838039 C104.216518,113.839317 105.210552,113.427561 105.942371,112.693901 L116.990787,101.645485 C118.516175,100.120097 118.516175,97.6466645 116.990787,96.1212768 C115.465399,94.5962797 112.991967,94.5962797 111.466579,96.1212768 L107.0869,100.501346 L107.0869,85.9064529 L184.375421,85.9064529 L184.375421,156.249675 L51.5627898,156.249675 L51.5627898,85.9064529 L51.5627898,85.9064529 Z M192.187515,167.968793 C192.187515,170.122695 190.435175,171.874645 188.281273,171.874645 L47.6565475,171.874645 C45.5026455,171.874645 43.7503051,170.122695 43.7503051,167.968793 L43.7503051,164.06216 L47.1842828,164.06216 C47.3393605,164.08091 47.4963916,164.09341 47.6565475,164.09341 C47.8167033,164.09341 47.9737344,164.08091 48.1288123,164.06216 L187.809008,164.06216 C187.964086,164.08091 188.121117,164.09341 188.281273,164.09341 C188.441429,164.09341 188.59846,164.08091 188.753537,164.06216 L192.187515,164.06216 L192.187515,167.968793 L192.187515,167.968793 Z" id="Shape" fill="#000000"></path>
            <path d="M172.655913,140.655565 L151.173142,140.655565 C149.015725,140.655565 147.2669,142.40478 147.2669,144.561807 C147.2669,146.718834 149.015725,148.46805 151.173142,148.46805 L172.655913,148.46805 C174.81333,148.46805 176.562155,146.718834 176.562155,144.561807 C176.562155,142.40478 174.81333,140.655565 172.655913,140.655565 Z M133.596223,140.655565 L133.593489,140.655565 C131.436071,140.655565 129.688419,142.40478 129.688419,144.561807 C129.688419,146.718834 131.438806,148.46805 133.596223,148.46805 C135.753641,148.46805 137.502466,146.718834 137.502466,144.561807 C137.502466,142.40478 135.753641,140.655565 133.596223,140.655565 Z M29.2983803,23.4382156 C31.4557979,23.4382156 33.2046227,21.6890002 33.2046227,19.5319732 C33.2046227,17.3749463 31.4557979,15.6257309 29.2983803,15.6257309 L29.2956459,15.6257309 C27.1382283,15.6257309 25.390966,17.3749463 25.390966,19.5319732 C25.390966,21.6890002 27.1409627,23.4382156 29.2983803,23.4382156 L29.2983803,23.4382156 Z" id="Shape" fill="#000000"></path>
        </g>
    </g>
</svg>