<?xml version="1.0" encoding="UTF-8"?>
<svg width="246px" height="250px" viewBox="0 0 246 250" version="1.1" xmlns="http://www.w3.org/2000/svg" xmlns:xlink="http://www.w3.org/1999/xlink">
    <title>feature-05</title>
    <defs>
        <polygon id="path-1" points="0 0.9424 245.249333 0.9424 245.249333 17.746 0 17.746"></polygon>
    </defs>
    <g id="Page-1" stroke="none" stroke-width="1" fill="none" fill-rule="evenodd">
        <g id="feature-05">
            <polygon id="Path" fill="#C8C8C8" fill-rule="nonzero" points="8 24 237 24 237 0 8 0"></polygon>
            <polygon id="Path" fill="#FFFFFF" fill-rule="nonzero" points="16 189 229 189 229 24 16 24"></polygon>
            <path d="M150.572464,147.908029 L91.5428749,147.908029 C89.3693062,147.908029 87.6072806,146.123704 87.6072806,143.922628 C87.6072806,141.721551 89.3693062,139.937226 91.5428749,139.937226 L150.576789,139.937226 C152.743528,139.937226 154.503734,141.715328 154.503734,143.922628 C154.503734,146.129927 152.743528,147.908029 150.572464,147.908029 M150.572464,163 L91.5428749,163 C89.3693062,163 87.6072806,161.215675 87.6072806,159.014599 C87.6072806,156.813522 89.3693062,155.029197 91.5428749,155.029197 L150.576789,155.029197 C152.750358,155.029197 154.512383,156.813522 154.512383,159.014599 C154.512383,161.215675 152.750358,163 150.576789,163 M188.064406,131.970803 L56.9355943,131.970803 C54.7620256,131.970803 53,130.186478 53,127.985401 C53,125.784325 54.7620256,124 56.9355943,124 L188.064406,124 C190.237974,124 192,125.784325 192,127.985401 C192,130.186478 190.237974,131.970803 188.064406,131.970803" id="Shape" fill="#ACAFAF" fill-rule="nonzero"></path>
            <path d="M237.054006,193 L7.94815491,193 C5.76764916,193 4,191.209122 4,188.999989 C4,186.790856 5.76764916,185 7.94815491,185 L237.049665,185 C239.237537,185 241,186.785592 241,189.002188 C241,190.063948 240.586718,191.082834 239.84526,191.833201 C239.103802,192.583568 238.097663,193.003493 237.049665,193" id="Path" fill="#C8C8C8" fill-rule="nonzero"></path>
            <g id="Clipped" transform="translate(0.000000, 180.000000)">
                <mask id="mask-2" fill="white">
                    <use xlink:href="#path-1"></use>
                </mask>
                <g id="a"></g>
                <path d="M236.977,17.746 L8.27666667,17.746 C3.70757,17.7411496 0.00477689535,13.9813905 0,9.342 C0,4.7132 3.71366667,0.9424 8.27666667,0.9424 L236.972667,0.9424 C241.46878,1.04688079 245.059964,4.77772 245.059964,9.3442 C245.059964,13.91068 241.46878,17.6415192 236.972667,17.746" id="Path" fill="#C8C8C8" fill-rule="nonzero" mask="url(#mask-2)"></path>
            </g>
            <path d="M121.997775,213 C119.23854,213 117,210.855274 117,208.197864 L117,193.8 C117,192.085125 117.952994,190.500516 119.5,189.643078 C121.047005,188.785641 122.952995,188.785641 124.5,189.643078 C126.047006,190.500516 127,192.085125 127,193.8 L127,208.197864 C127,210.855274 124.76591,213 121.997775,213" id="Path" fill="#C8C8C8" fill-rule="nonzero"></path>
            <path d="M121.997844,191.382651 C120.514312,191.382651 119.311672,192.605089 119.311672,194.113042 L119.311672,208.882575 C119.272172,209.884936 119.77575,210.828827 120.623785,211.341958 C121.47182,211.855089 122.52818,211.855089 123.376215,211.341958 C124.22425,210.828827 124.727828,209.884936 124.688328,208.882575 L124.688328,194.113042 C124.685949,192.60438 123.482075,191.382651 121.997844,191.382651 M121.997844,216 C118.13333,215.995166 115.002375,212.810709 115,208.882575 L115,194.113042 C115,190.194952 118.138897,187 121.997844,187 C125.861103,187 129,190.194952 129,194.113042 L129,208.882575 C129,212.80943 125.861103,216 121.997844,216" id="Shape" fill="#C8C8C8" fill-rule="nonzero"></path>
            <path d="M122.49783,248 C111.734433,247.988042 103.011958,239.265567 103,228.50217 C103.007178,217.736088 111.73175,209.009574 122.49783,209 C133.265605,209.007181 141.992819,217.734395 142,228.50217 C141.988038,239.267259 133.262922,247.990433 122.49783,248 M122.49783,218.751085 C117.117123,218.760646 112.758251,223.121459 112.751085,228.50217 C112.75587,233.883165 117.116835,238.24413 122.49783,238.248915 C127.87953,238.244134 132.241738,233.883867 132.248915,228.50217 C132.241743,223.119768 127.880232,218.758257 122.49783,218.751085" id="Shape" fill="#C8C8C8" fill-rule="nonzero"></path>
            <path d="M122.497847,220.980273 C119.453007,220.978533 116.707094,222.81159 115.541079,225.624323 C114.375065,228.437056 115.0187,231.675245 117.171727,233.828273 C119.324755,235.9813 122.562944,236.624935 125.375677,235.458921 C128.18841,234.292906 130.021467,231.546993 130.019727,228.502153 C130.012615,224.350883 126.649117,220.987385 122.497847,220.980273 M122.497847,240.325323 C115.970059,240.320574 110.679426,235.029941 110.674677,228.502153 C110.679423,221.973666 115.969362,216.6818 122.497847,216.674677 C129.027031,216.681796 134.318204,221.972969 134.325323,228.502153 C134.3182,235.030638 129.026334,240.320577 122.497847,240.325323 M122.497847,211.305597 C113.006068,211.317463 105.315086,219.010371 105.305597,228.502153 C105.315091,237.993235 113.006765,245.684909 122.497847,245.694403 C131.989629,245.684914 139.682537,237.993932 139.694403,228.502153 C139.682542,219.009675 131.990325,211.317458 122.497847,211.305597 M122.497847,250 C110.630815,249.985765 101.014235,240.369185 101,228.502153 C101.01423,216.634421 110.630119,207.016606 122.497847,207 C134.367257,207.014235 143.985765,216.632743 144,228.502153 C143.983394,240.369881 134.365579,249.98577 122.497847,250" id="Shape" fill="#C8C8C8" fill-rule="nonzero"></path>
            <g id="Group" transform="translate(68.000000, 38.000000)" fill="#009EFE" fill-rule="nonzero">
                <path d="M66.6668213,43.7765442 L52.4083497,58.089555 L52.4083497,74 L45.5893772,74 L45.5893772,58.1123755 L31.3081758,43.7765442 L48.9874986,26.0267679 L66.6668213,43.7765442 Z M48.8647571,0 C62.2594921,0 73.3539604,9.89724616 75.2882756,22.8045148 L75.3701033,23.4046937 L75.7724226,23.4138218 C87.8965558,23.7424369 97.6635974,33.548401 97.9909081,45.7208499 L98,46.3506954 C98,58.5505288 88.5057173,68.5641595 76.429317,69.2624665 L75.7906065,69.2898511 L75.1450772,69.2989792 L60.6547606,69.2989792 L60.6547606,62.4528325 L75.0927983,62.4528325 L75.6383162,62.4437043 C81.4982977,62.2570039 86.7896763,58.8744415 89.437342,53.6225504 C92.0850077,48.3706594 91.6668522,42.0867302 88.3468629,37.2351199 C85.0268736,32.3835096 79.3343447,29.7376934 73.5017048,30.3352762 L72.6902471,30.4379684 L68.728424,31.0472754 L68.7670648,26.827767 C68.7670648,15.7922229 59.8564981,6.84614679 48.8647571,6.84614673 C38.0703236,6.84614673 29.282941,15.4768557 28.9715412,26.1796651 L28.9624492,26.7638696 L29.0397309,30.9559935 L25.0892729,30.4060196 C16.5539191,30.0970464 9.275146,36.5588425 8.53572187,45.1015831 C7.79629774,53.6443237 13.8557316,61.2698395 22.316224,62.4437043 L22.8549228,62.4528325 L37.3429665,62.4528325 L37.3429665,69.2989792 L22.8549228,69.2989792 C10.2330047,69.2989792 0,59.025195 0,46.3506954 C0,34.1006569 9.56247243,24.0915903 21.6002319,23.4389244 L22.3594109,23.4092577 L22.4435115,22.8045148 C24.3437319,10.1163229 35.0972516,0.337743203 48.1874057,0.00912815998 L48.8647571,0 Z M48.9897715,35.7049372 L40.9524759,43.7719802 L48.9897715,51.841305 L57.0247941,43.7719802 L48.9897715,35.7049372 Z" id="Shape"></path>
            </g>
        </g>
    </g>
</svg>