<svg xmlns="http://www.w3.org/2000/svg" xmlns:xlink="http://www.w3.org/1999/xlink" width="70" height="70" viewBox="0 0 70 70">
    <defs>
        <path id="a" d="M0 .837h58.206V47H0z"/>
    </defs>
    <g fill="none" fill-rule="evenodd">
        <path fill="#333" d="M7.003 56.997h56.432V17.243H7.003z"/>
        <path fill="#262626" d="M7.003 56.997h16.058V17.858H7.003z"/>
        <g transform="translate(6 11)">
            <mask id="b" fill="#fff">
                <use xlink:href="#a"/>
            </mask>
            <path fill="#CCC" d="M56.2 43.99c0 .553-.45 1.002-1.005 1.002H3.012a1.003 1.003 0 0 1-1.004-1.003V7.861c0-.554.45-1.003 1.004-1.003h52.185c.553 0 1.004.45 1.004 1.003V43.99zM55.194.835H3.012a3.01 3.01 0 0 0-3.01 3.011V43.99A3.01 3.01 0 0 0 3.01 47h52.185a3.01 3.01 0 0 0 3.01-3.01V3.846a3.01 3.01 0 0 0-3.01-3.01z" mask="url(#b)"/>
        </g>
        <path fill="#FF6464" d="M9.011 13.843a1.004 1.004 0 1 1-.002 2.008 1.004 1.004 0 0 1 .002-2.008"/>
        <path fill="#FFE182" d="M12.022 13.843a1.004 1.004 0 1 1-.002 2.008 1.004 1.004 0 0 1 .002-2.008"/>
        <path fill="#A5D76E" d="M15.031 13.843a1.004 1.004 0 1 1 0 2.008 1.004 1.004 0 0 1 0-2.008"/>
        <path fill="#EFF2FA" d="M57.181 16.698h-1.003c-.555 0-1.004-.639-1.004-1.427 0-.789.449-1.428 1.004-1.428h1.003c.555 0 1.004.64 1.004 1.428 0 .788-.449 1.427-1.004 1.427M61.196 16.698h-1.004c-.554 0-1.004-.639-1.004-1.427 0-.789.45-1.428 1.004-1.428h1.004c.554 0 1.004.64 1.004 1.428 0 .788-.45 1.427-1.004 1.427M52.163 16.698H28.078c-.555 0-1.004-.639-1.004-1.427 0-.789.45-1.428 1.004-1.428h24.085c.555 0 1.004.64 1.004 1.428 0 .788-.449 1.427-1.004 1.427"/>
        <path fill="#515151" d="M12.022 22.876h-1.004a1.003 1.003 0 1 1 0-2.007h1.004a1.003 1.003 0 0 1 0 2.007M20.05 22.876h-4.015a1.004 1.004 0 0 1 0-2.007h4.015a1.003 1.003 0 0 1 0 2.007M12.022 26.89h-1.004a1.003 1.003 0 1 1 0-2.007h1.004a1.003 1.003 0 0 1 0 2.007M20.05 26.89h-4.015a1.004 1.004 0 0 1 0-2.007h4.015a1.003 1.003 0 0 1 0 2.007M12.022 53.004h-1.004a1.003 1.003 0 1 1 0-2.007h1.004a1.003 1.003 0 0 1 0 2.007M20.05 53.004h-4.015a1.004 1.004 0 0 1 0-2.007h4.015a1.003 1.003 0 0 1 0 2.007M12.022 30.904h-1.004a1.003 1.003 0 1 1 0-2.007h1.004a1.003 1.003 0 0 1 0 2.007M20.05 30.904h-4.015a1.004 1.004 0 0 1 0-2.007h4.015a1.003 1.003 0 0 1 0 2.007M17.04 34.919h-6.022a1.004 1.004 0 1 1 0-2.007h6.021a1.004 1.004 0 1 1 0 2.007M17.04 38.933h-6.022a1.004 1.004 0 1 1 0-2.007h6.021a1.004 1.004 0 1 1 0 2.007"/>
        <path fill="#EFF2FA" d="M56.822 47.965H38.187c-.75 0-1.363-.614-1.363-1.364v-27.38c0-.75.613-1.362 1.363-1.362h18.635c.75 0 1.363.612 1.363 1.362v27.38c0 .75-.613 1.364-1.363 1.364"/>
        <path fill="#FFF" d="M54.816 25.167H40.088a1.614 1.614 0 0 1-1.61-1.61v-1.475c0-.885.726-1.61 1.61-1.61h14.728c.885 0 1.608.725 1.608 1.61v1.476c0 .885-.723 1.609-1.608 1.609"/>
        <path fill="#CCC" d="M41.785 29.305h-2.003a1.003 1.003 0 1 1 0-2.007h2.003a1.003 1.003 0 1 1 0 2.007M54.814 29.305H44.799a1.004 1.004 0 1 1 0-2.007h10.015a1.003 1.003 0 0 1 0 2.007M41.785 33.112h-2.003a1.003 1.003 0 1 1 0-2.007h2.003a1.003 1.003 0 1 1 0 2.007M54.814 33.112H44.799a1.004 1.004 0 1 1 0-2.007h10.015a1.003 1.003 0 0 1 0 2.007M41.785 36.92h-2.003a1.003 1.003 0 1 1 0-2.008h2.003a1.003 1.003 0 1 1 0 2.007M54.814 36.92H44.799a1.004 1.004 0 1 1 0-2.008h10.015a1.003 1.003 0 0 1 0 2.007"/>
        <path fill="#4788BA" d="M55.317 45.901H39.903a.501.501 0 0 1-.5-.5v-2.915c0-.274.225-.5.5-.5h15.414c.275 0 .5.226.5.5v2.915c0 .275-.225.5-.5.5"/>
    </g>
</svg>
