<svg xmlns="http://www.w3.org/2000/svg" xmlns:xlink="http://www.w3.org/1999/xlink" width="70" height="70" viewBox="0 0 70 70">
    <defs>
        <path id="a" d="M.568.466h57.095v41.109H.568z"/>
        <path id="c" d="M0 .29h66.23V6H0z"/>
    </defs>
    <g fill="none" fill-rule="evenodd">
        <g transform="translate(6 12)">
            <mask id="b" fill="#fff">
                <use xlink:href="#a"/>
            </mask>
            <path fill="#515151" d="M19.98 39.29v2.285h18.271V39.29h19.412V2.75A2.284 2.284 0 0 0 55.38.466H2.851A2.283 2.283 0 0 0 .568 2.75v36.54H19.98z" mask="url(#b)"/>
        </g>
        <g transform="translate(2 51)">
            <mask id="d" fill="#fff">
                <use xlink:href="#c"/>
            </mask>
            <path fill="#CCC" d="M42.25.29v2.285H23.98V.29H0v3.426A2.283 2.283 0 0 0 2.284 6h61.662a2.282 2.282 0 0 0 2.284-2.283V.29H42.25z" mask="url(#d)"/>
        </g>
        <path fill="#FFF" d="M10.173 47.474h50.011V15.991H10.173z"/>
        <path fill="#FFF" d="M47.936 29.84a2.89 2.89 0 1 1-5.778 0 2.89 2.89 0 0 1 5.778 0M32.524 22.103a2.89 2.89 0 1 1-5.778 0 2.89 2.89 0 0 1 5.778 0M32.524 41.327a2.89 2.89 0 1 1-5.778 0 2.89 2.89 0 0 1 5.778 0"/>
        <path fill="#4788BA" d="M41.915 26.15a1.482 1.482 0 0 1-1.09.45c-.426 0-.79-.15-1.088-.45a1.48 1.48 0 0 1-.448-1.088c0-.427.149-.79.448-1.09a1.482 1.482 0 0 1 1.089-.447c.428 0 .79.149 1.089.448.299.299.448.662.448 1.089 0 .427-.148.79-.448 1.089m-10.25-2.05a1.482 1.482 0 0 1-1.088.448c-.427 0-.79-.15-1.09-.448a1.48 1.48 0 0 1-.447-1.09c0-.426.149-.79.448-1.088a1.486 1.486 0 0 1 1.089-.448c.427 0 .79.15 1.089.448.299.299.448.662.448 1.089 0 .428-.15.79-.448 1.089m0 18.449a1.483 1.483 0 0 1-1.09.449c-.426 0-.79-.15-1.088-.45a1.48 1.48 0 0 1-.448-1.087c0-.428.149-.79.448-1.09a1.482 1.482 0 0 1 1.089-.448c.427 0 .79.149 1.089.448.299.3.448.662.448 1.09 0 .426-.15.79-.448 1.088m11.339-19.666a2.968 2.968 0 0 0-2.18-.897c-.852 0-1.58.299-2.177.897a2.968 2.968 0 0 0-.896 2.178c0 .555.139 1.07.416 1.546.277.475.65.846 1.12 1.112 0 .556-.044 1.044-.135 1.466-.091.422-.24.792-.448 1.113a5.07 5.07 0 0 1-.65.816c-.224.225-.538.435-.944.633-.406.197-.782.363-1.13.497-.346.133-.813.29-1.4.472-1.068.33-1.891.635-2.467.913v-7.96c.47-.267.844-.638 1.12-1.113.279-.475.417-.99.417-1.545 0-.854-.3-1.58-.896-2.178-.598-.598-1.323-.896-2.178-.896-.854 0-1.58.298-2.178.896a2.965 2.965 0 0 0-.897 2.178c0 .555.139 1.07.416 1.545.278.475.65.846 1.12 1.114V38.8a3 3 0 0 0-1.12 1.114 3.02 3.02 0 0 0-.416 1.546c0 .854.299 1.58.897 2.177a2.965 2.965 0 0 0 2.178.897c.854 0 1.58-.3 2.178-.897a2.964 2.964 0 0 0 .896-2.177 3.01 3.01 0 0 0-.416-1.546 2.994 2.994 0 0 0-1.121-1.113v-.416c0-.736.222-1.27.665-1.601.443-.331 1.348-.71 2.714-1.137 1.442-.46 2.526-.892 3.252-1.298 2.39-1.355 3.598-3.566 3.618-6.63a2.97 2.97 0 0 0 1.12-1.112c.279-.476.418-.991.418-1.546 0-.854-.3-1.58-.896-2.178"/>
    </g>
</svg>
