<svg xmlns="http://www.w3.org/2000/svg" xmlns:xlink="http://www.w3.org/1999/xlink" width="70" height="70" viewBox="0 0 70 70">
    <defs>
        <path id="a" d="M0 .623h14.377V15H0z"/>
    </defs>
    <g fill="none" fill-rule="evenodd">
        <path fill="#66B5F0" d="M33.753 46.859h2.054V22.213h-2.054z"/>
        <path fill="#66B5F0" d="M34.331 46.283h.899V22.79h-.899v23.493zm-1.155 1.154h3.208V21.636h-3.208v25.801z"/>
        <path fill="#66B5F0" d="M58.4 46.86h-2.055V35.562H13.216V46.86h-2.054V34.51a1 1 0 0 1 1.001-1h45.462c.427 0 .775.347.775.775V46.86z"/>
        <path fill="#66B5F0" d="M56.922 46.282h.9V34.285a.199.199 0 0 0-.199-.198h-45.46a.425.425 0 0 0-.425.424v11.77h.901V34.988h44.283v11.295zm2.055 1.155h-3.209V36.14H13.793v11.296h-3.209V34.51a1.58 1.58 0 0 1 1.578-1.58h45.461c.747 0 1.354.608 1.354 1.354v13.152z"/>
        <g transform="translate(5 44)">
            <mask id="b" fill="#fff">
                <use xlink:href="#a"/>
            </mask>
            <path fill="#FFF" d="M2.165.623h10.049c1.195 0 2.163.969 2.163 2.165v10.049A2.163 2.163 0 0 1 12.214 15H2.164A2.165 2.165 0 0 1 0 12.837V2.787C0 1.593.97.624 2.165.624" mask="url(#b)"/>
        </g>
        <path fill="#FFF" d="M52.288 44.623h10.17c1.162 0 2.103.942 2.103 2.104v10.17A2.102 2.102 0 0 1 62.458 59h-10.17a2.104 2.104 0 0 1-2.104-2.103v-10.17c0-1.162.943-2.104 2.104-2.104M29.649 44.623h10.264c1.135 0 2.056.92 2.056 2.057v10.264A2.057 2.057 0 0 1 39.913 59H29.649a2.057 2.057 0 0 1-2.057-2.056V46.68c0-1.136.921-2.057 2.057-2.057M21.837 10.125H47.51c.995 0 1.805.808 1.805 1.805v10.767c0 .996-.81 1.804-1.805 1.804H21.837a1.805 1.805 0 0 1-1.806-1.804V11.93c0-.997.809-1.805 1.806-1.805"/>
    </g>
</svg>
