<?xml version="1.0" encoding="UTF-8"?>
<svg width="290px" height="208px" viewBox="0 0 290 208" version="1.1" xmlns="http://www.w3.org/2000/svg" xmlns:xlink="http://www.w3.org/1999/xlink">
    <title>feature-02</title>
    <defs>
        <polygon id="path-1" points="0.710593492 0.291211951 250.525482 0.291211951 250.525482 192.900887 0.710593492 192.900887"></polygon>
        <polygon id="path-3" points="0 0.29140625 289.925162 0.29140625 289.925162 25.71875 0 25.71875"></polygon>
    </defs>
    <g id="Page-1" stroke="none" stroke-width="1" fill="none" fill-rule="evenodd">
        <g id="feature-02">
            <g id="Clipped" transform="translate(20.000000, 0.000000)">
                <mask id="mask-2" fill="white">
                    <use xlink:href="#path-1"></use>
                </mask>
                <g id="a"></g>
                <path d="M85.6463429,182.194883 L85.6463429,192.900887 L165.589732,192.900887 L165.589732,182.194883 L250.525482,182.194883 L250.525482,10.9925303 C250.525482,5.08418465 246.053919,0.293798793 240.536387,0.291211951 L10.6996887,0.291211951 C8.04965766,0.291211951 5.5082289,1.41881828 3.63478434,3.42583957 C1.76133978,5.43286087 0.710592532,8.15479517 0.710592532,10.9925303 L0.710592532,182.194883 L85.6463429,182.194883 Z" id="Path" fill="#515151" fill-rule="nonzero" mask="url(#mask-2)"></path>
            </g>
            <g id="Clipped" transform="translate(0.000000, 182.000000)">
                <mask id="mask-4" fill="white">
                    <use xlink:href="#path-3"></use>
                </mask>
                <g id="c"></g>
                <path d="M184.951503,0.29140625 L184.951503,10.4667969 L104.973658,10.4667969 L104.973658,0.29140625 L-9.60537818e-07,0.29140625 L-9.60537818e-07,15.5478125 C-9.60537818e-07,18.245675 1.05185689,20.8333796 2.9271585,22.7410566 C4.8024601,24.6487337 7.34624836,25.719932 9.99832506,25.7187539 L279.926837,25.7187539 C282.57851,25.7211144 285.122311,24.6509073 286.997738,22.7439371 C288.873166,20.8369669 289.925163,18.2497192 289.925163,15.5522656 L289.925163,0.29140625 L184.951503,0.29140625 Z" id="Path" fill="#CCCCCC" fill-rule="nonzero" mask="url(#mask-4)"></path>
            </g>
            <polygon id="Path" fill="#FFFFFF" fill-rule="nonzero" points="35 167 254 167 254 15 35 15"></polygon>
            <path d="M200.995593,88.8388582 C201.116873,93.5012829 198.727293,97.8630178 194.754747,100.230367 C190.7822,102.597716 185.852541,102.597716 181.879995,100.230367 C177.907448,97.8630178 175.517868,93.5012829 175.639148,88.8388582 C175.819977,81.8871518 181.442903,76.3467845 188.317371,76.3467845 C195.191838,76.3467845 200.814765,81.8871518 200.995593,88.8388582 M133.360852,54.4920736 C133.482132,59.1544984 131.092552,63.5162333 127.120005,65.8835826 C123.147459,68.2509319 118.2178,68.2509319 114.245253,65.8835826 C110.272707,63.5162333 107.883127,59.1544984 108.004407,54.4920736 C108.185235,47.5403673 113.808162,42 120.682629,42 C127.557097,42 133.180023,47.5403673 133.360852,54.4920736 M133.360852,139.832979 C133.482132,144.495404 131.092552,148.857139 127.120005,151.224488 C123.147459,153.591837 118.2178,153.591837 114.245253,151.224488 C110.272707,148.857139 107.883127,144.495404 108.004407,139.832979 C108.185235,132.881273 113.808162,127.340905 120.682629,127.340905 C127.557097,127.340905 133.180023,132.881273 133.360852,139.832979" id="Shape" fill="#FFFFFF" fill-rule="nonzero"></path>
            <g id="Group" transform="translate(100.000000, 49.000000)" fill="#4788BA" fill-rule="nonzero">
                <path d="M45,0.00232151595 C20.4110149,-0.244678272 0.269697499,19.2493383 0,43.5561133 C0.0933482764,62.4820201 12.518241,79.1906515 30.7636364,84.9261495 C33.0136364,85.3305488 33.8318182,83.9960315 33.8318182,82.8232738 L33.8318182,75.4227688 C21.3136363,78.0513634 18.6545455,69.5994206 18.6545455,69.5994206 C17.8212133,66.9461576 16.0495862,64.6780691 13.6636363,63.2099135 C9.57272718,60.5408789 13.990909,60.5813189 13.9909091,60.5813188 C16.8556899,60.9599118 19.3876855,62.6136512 20.8636364,65.0701497 C23.5047795,69.5974211 29.3280671,71.1984483 33.9545454,68.6693025 C34.1832565,66.4547403 35.197739,64.3917391 36.8181818,62.8459543 C26.8363636,61.7540765 16.3636364,58.033604 16.3636363,41.3319178 C16.2743735,36.9752432 17.9028109,32.755058 20.9045454,29.5639016 C19.5374747,25.8234858 19.6988972,21.7036463 21.3545455,18.0789649 C21.3545455,18.0789649 25.1590909,16.9062073 33.6272728,22.5273559 C40.9986573,20.5855867 48.7558881,20.5855867 56.1272727,22.5273559 C64.7181818,16.9062072 68.4,18.0789649 68.4,18.0789649 C70.0556482,21.7036463 70.2170708,25.8234858 68.85,29.5639016 C71.9214627,32.6965679 73.6382037,36.8884321 73.6363637,41.251038 C73.6363637,57.9931641 63.0818182,61.6731967 53.1818182,62.7650744 C55.3768026,64.8717325 56.5024848,67.8391249 56.25,70.853058 L56.25,82.7828338 C56.25,84.1982309 57.0681818,85.3305487 59.3181818,84.8857096 C77.5090581,79.1155121 89.8875988,62.4411389 90,43.5561133 C89.7303025,19.2493383 69.5889851,-0.244678272 45,0.00232151595" id="Path"></path>
            </g>
        </g>
    </g>
</svg>