<?xml version="1.0" encoding="UTF-8"?>
<svg width="769px" height="796px" viewBox="0 0 769 796" version="1.1" xmlns="http://www.w3.org/2000/svg" xmlns:xlink="http://www.w3.org/1999/xlink">
    <g id="Page-1" stroke="none" stroke-width="1" fill="none" fill-rule="evenodd">
        <g id="feature-ipfs" fill-rule="nonzero">
            <polygon id="Path" fill="#E1FAFB" points="422.2 401.1 422.2 401.09 422.21 401.1 423.6 400.3 586.85 306.37 422.19 210.55 422.19 210.55 422.19 210.55 422.18 210.55 422.18 210.55 257.5 305.25 422.18 401.08"></polygon>
            <polygon id="Path" fill="#C3EAEF" points="422.28 591.63 422.28 591.63 422.28 591.63 422.28 401.11 422.28 401.11 257.58 305.26 257.58 305.26 257.58 305.26 257.58 495.78 257.66 495.83"></polygon>
            <polygon id="Path" fill="#9DDDE3" points="586.94 306.37 422.26 401.07 422.24 401.09 422.24 591.61 422.27 591.63 422.28 591.63 422.28 591.63 586.95 496.93 586.95 496.93 586.95 496.91 586.95 306.37 586.94 306.38"></polygon>
            <polygon id="Path" fill="#E1FAFB" points="240.44 503 240.44 503 240.45 503 241.84 502.21 405.09 408.27 240.43 312.45 240.43 312.45 240.43 312.45 240.42 312.45 240.42 312.45 75.74 407.15 240.42 502.99"></polygon>
            <polygon id="Path" fill="#C3EAEF" points="240.52 693.53 240.52 693.53 240.53 693.53 240.53 503.01 240.53 503.01 75.83 407.16 75.83 407.16 75.82 407.16 75.82 597.68 75.9 597.73"></polygon>
            <polygon id="Path" fill="#9DDDE3" points="405.18 408.28 240.5 502.98 240.48 502.99 240.48 693.51 240.52 693.53 240.52 693.53 240.52 693.53 405.19 598.84 405.19 598.84 405.19 598.82 405.19 408.28 405.18 408.28"></polygon>
            <polygon id="Path" fill="#E1FAFB" points="421.95 191.11 421.95 191.11 421.96 191.11 423.35 190.32 586.6 96.38 421.94 0.56 421.93 0.56 421.93 0.56 421.93 0.56 421.93 0.56 257.25 95.26 421.93 191.1"></polygon>
            <polygon id="Path" fill="#C3EAEF" points="422.03 381.64 422.03 381.64 422.03 381.64 422.03 191.12 422.03 191.12 257.33 95.27 257.33 95.27 257.33 95.27 257.33 285.79 257.4 285.84"></polygon>
            <polygon id="Path" fill="#9DDDE3" points="586.69 96.39 422.01 191.09 421.99 191.1 421.99 381.62 422.02 381.64 422.02 381.64 422.03 381.64 586.7 286.95 586.7 286.95 586.7 286.93 586.7 96.39 586.69 96.39"></polygon>
            <polygon id="Path" fill="#E1FAFB" points="244.34 291.97 244.35 291.97 244.35 291.97 245.02 291.58 324.33 245.95 244.34 199.39 244.34 199.4 244.34 199.4 244.33 199.39 244.33 199.39 164.33 245.4 244.33 291.96"></polygon>
            <polygon id="Path" fill="#C3EAEF" points="244.38 384.53 244.38 384.53 244.38 384.53 244.38 291.97 244.38 291.97 164.37 245.41 164.37 245.41 164.37 245.41 164.37 337.97 164.4 337.99"></polygon>
            <polygon id="Path" fill="#9DDDE3" points="324.38 245.95 244.37 291.96 244.36 291.97 244.36 384.52 244.38 384.53 244.38 384.53 244.38 384.53 324.38 338.53 324.38 338.53 324.38 338.52 324.38 245.95 324.38 245.95"></polygon>
            <polygon id="Path" fill="#E1FAFB" points="332.65 341.48 332.65 341.48 332.65 341.48 333.32 341.09 412.63 295.46 332.64 248.9 332.64 248.9 332.64 248.9 332.64 248.9 332.63 248.9 252.63 294.91 332.63 341.47"></polygon>
            <polygon id="Path" fill="#C3EAEF" points="332.68 434.04 332.68 434.04 332.69 434.04 332.69 341.48 332.69 341.48 252.67 294.92 252.67 294.92 252.67 294.92 252.67 387.48 252.71 387.5"></polygon>
            <polygon id="Path" fill="#9DDDE3" points="412.68 295.46 332.67 341.47 332.66 341.47 332.66 434.03 332.68 434.04 332.68 434.04 332.68 434.04 412.68 388.04 412.68 388.04 412.68 388.02 412.68 295.46 412.68 295.46"></polygon>
            <polygon id="Path" fill="#E1FAFB" points="156.04 341.48 156.04 341.48 156.05 341.48 156.72 341.09 236.03 295.46 156.04 248.9 156.04 248.9 156.04 248.9 156.03 248.9 156.03 248.9 76.03 294.91 156.03 341.47"></polygon>
            <polygon id="Path" fill="#C3EAEF" points="156.08 434.04 156.08 434.04 156.08 434.04 156.08 341.48 156.08 341.48 76.07 294.92 76.07 294.92 76.06 294.92 76.06 387.48 76.1 387.5"></polygon>
            <polygon id="Path" fill="#9DDDE3" points="236.08 295.46 156.07 341.47 156.06 341.47 156.06 434.03 156.08 434.04 156.08 434.04 156.08 434.04 236.08 388.04 236.08 388.04 236.08 388.02 236.08 295.46 236.08 295.46"></polygon>
            <polygon id="Path" fill="#E1FAFB" points="244.34 390.98 244.35 390.98 244.35 390.99 245.02 390.6 324.33 344.96 244.34 298.41 244.34 298.41 244.34 298.41 244.33 298.41 244.33 298.41 164.33 344.42 244.33 390.98"></polygon>
            <polygon id="Path" fill="#C3EAEF" points="244.38 483.55 244.38 483.55 244.38 483.55 244.38 390.99 244.38 390.99 164.37 344.42 164.37 344.42 164.37 344.42 164.37 436.98 164.4 437"></polygon>
            <polygon id="Path" fill="#9DDDE3" points="324.38 344.97 244.37 390.97 244.36 390.98 244.36 483.54 244.38 483.55 244.38 483.55 244.38 483.55 324.38 437.54 324.38 437.54 324.38 437.53 324.38 344.97 324.38 344.97"></polygon>
            <polygon id="Path" fill="#E1FAFB" points="244.14 189.95 244.14 189.95 244.14 189.95 244.82 189.57 324.13 143.93 244.13 97.38 244.13 97.38 244.13 97.38 244.13 97.38 244.13 97.38 164.12 143.39 244.13 189.95"></polygon>
            <polygon id="Path" fill="#C3EAEF" points="244.18 282.52 244.18 282.52 244.18 282.52 244.18 189.96 244.18 189.96 164.16 143.39 164.16 143.39 164.16 143.39 164.16 235.95 164.2 235.98"></polygon>
            <polygon id="Path" fill="#9DDDE3" points="324.17 143.94 244.17 189.94 244.16 189.95 244.16 282.51 244.17 282.52 244.17 282.52 244.18 282.52 324.18 236.51 324.18 236.51 324.18 236.5 324.18 143.94 324.17 143.94"></polygon>
            <polygon id="Path" fill="#E1FAFB" points="332.44 239.46 332.44 239.46 332.44 239.46 333.12 239.07 412.43 193.44 332.43 146.89 332.43 146.89 332.43 146.89 332.43 146.89 332.43 146.89 252.42 192.9 332.43 239.45"></polygon>
            <polygon id="Path" fill="#C3EAEF" points="332.48 332.03 332.48 332.02 332.48 332.03 332.48 239.47 332.48 239.47 252.46 192.9 252.46 192.9 252.46 192.9 252.46 285.46 252.5 285.48"></polygon>
            <polygon id="Path" fill="#9DDDE3" points="412.47 193.44 332.47 239.45 332.46 239.46 332.46 332.02 332.48 332.02 332.48 332.02 332.48 332.03 412.48 286.02 412.48 286.02 412.48 286.01 412.48 193.44 412.47 193.45"></polygon>
            <polygon id="Path" fill="#E1FAFB" points="155.84 239.46 155.84 239.46 155.84 239.46 156.51 239.07 235.82 193.44 155.83 146.89 155.83 146.89 155.83 146.89 155.83 146.89 155.83 146.89 75.82 192.9 155.83 239.45"></polygon>
            <polygon id="Path" fill="#C3EAEF" points="155.87 332.03 155.87 332.02 155.88 332.03 155.88 239.47 155.88 239.47 75.86 192.9 75.86 192.9 75.86 192.9 75.86 285.46 75.9 285.48"></polygon>
            <polygon id="Path" fill="#9DDDE3" points="235.87 193.44 155.87 239.45 155.86 239.46 155.86 332.02 155.87 332.02 155.87 332.02 155.87 332.03 235.87 286.02 235.87 286.02 235.87 286.01 235.87 193.44 235.87 193.45"></polygon>
            <polygon id="Path" fill="#3C8DA0" points="244.14 288.97 244.14 288.97 244.14 288.97 244.82 288.58 324.13 242.95 244.13 196.4 244.13 196.4 244.13 196.4 244.13 196.4 244.13 196.4 164.12 242.4 244.13 288.96"></polygon>
            <polygon id="Path" fill="#20738C" points="244.18 381.53 244.18 381.53 244.18 381.53 244.18 288.98 244.18 288.98 164.16 242.41 164.16 242.41 164.16 242.41 164.16 334.97 164.2 334.99"></polygon>
            <polygon id="Path" fill="#0E627C" points="324.17 242.95 244.17 288.96 244.16 288.97 244.16 381.52 244.17 381.53 244.17 381.53 244.18 381.53 324.18 335.53 324.18 335.53 324.18 335.52 324.18 242.95 324.17 242.95"></polygon>
            <polygon id="Path" fill="#E1FAFB" points="600.48 503.51 600.48 503.51 600.48 503.51 601.15 503.12 680.47 457.49 600.47 410.93 600.47 410.94 600.47 410.94 600.47 410.93 600.47 410.93 520.46 456.94 600.47 503.5"></polygon>
            <polygon id="Path" fill="#C3EAEF" points="600.51 596.07 600.51 596.07 600.52 596.07 600.52 503.51 600.52 503.51 520.5 456.95 520.5 456.95 520.5 456.95 520.5 549.51 520.54 549.53"></polygon>
            <polygon id="Path" fill="#9DDDE3" points="680.51 457.49 600.5 503.5 600.5 503.5 600.5 596.06 600.51 596.07 600.51 596.07 600.51 596.07 680.51 550.07 680.51 550.07 680.51 550.06 680.51 457.49 680.51 457.49"></polygon>
            <polygon id="Path" fill="#E1FAFB" points="688.78 553.02 688.78 553.01 688.78 553.02 689.46 552.63 768.77 507 688.77 460.44 688.77 460.44 688.77 460.44 688.77 460.44 688.77 460.44 608.76 506.45 688.77 553.01"></polygon>
            <polygon id="Path" fill="#C3EAEF" points="688.82 645.58 688.82 645.58 688.82 645.58 688.82 553.02 688.82 553.02 608.8 506.46 608.8 506.46 608.8 506.46 608.8 599.01 608.84 599.04"></polygon>
            <polygon id="Path" fill="#9DDDE3" points="768.81 507 688.81 553 688.8 553.01 688.8 645.57 688.81 645.58 688.81 645.58 688.82 645.58 768.82 599.58 768.82 599.58 768.82 599.57 768.82 507 768.81 507"></polygon>
            <polygon id="Path" fill="#E1FAFB" points="512.17 553.02 512.17 553.01 512.18 553.02 512.85 552.63 592.16 507 512.17 460.44 512.17 460.44 512.17 460.44 512.16 460.44 512.16 460.44 432.16 506.45 512.16 553.01"></polygon>
            <polygon id="Path" fill="#C3EAEF" points="512.21 645.58 512.21 645.58 512.22 645.58 512.22 553.02 512.22 553.02 432.2 506.46 432.2 506.46 432.2 506.46 432.2 599.01 432.24 599.04"></polygon>
            <polygon id="Path" fill="#9DDDE3" points="592.21 507 512.2 553 512.19 553.01 512.19 645.57 512.21 645.58 512.21 645.58 512.21 645.58 592.21 599.58 592.21 599.58 592.21 599.57 592.21 507 592.21 507"></polygon>
            <polygon id="Path" fill="#E1FAFB" points="600.48 602.52 600.48 602.52 600.48 602.52 601.15 602.14 680.47 556.5 600.47 509.95 600.47 509.95 600.47 509.95 600.47 509.95 600.47 509.95 520.46 555.96 600.47 602.52"></polygon>
            <polygon id="Path" fill="#C3EAEF" points="600.51 695.09 600.51 695.09 600.52 695.09 600.52 602.53 600.52 602.53 520.5 555.96 520.5 555.96 520.5 555.96 520.5 648.52 520.54 648.54"></polygon>
            <polygon id="Path" fill="#9DDDE3" points="680.51 556.5 600.5 602.51 600.5 602.52 600.5 695.08 600.51 695.09 600.51 695.09 600.51 695.09 680.51 649.08 680.51 649.08 680.51 649.07 680.51 556.51 680.51 556.51"></polygon>
            <polygon id="Path" fill="#E1FAFB" points="600.27 401.49 600.27 401.49 600.27 401.49 600.95 401.11 680.26 355.47 600.26 308.92 600.26 308.92 600.26 308.92 600.26 308.92 600.26 308.92 520.25 354.93 600.26 401.49"></polygon>
            <polygon id="Path" fill="#C3EAEF" points="600.31 494.06 600.31 494.06 600.31 494.06 600.31 401.5 600.31 401.5 520.3 354.93 520.3 354.93 520.29 354.93 520.29 447.49 520.33 447.51"></polygon>
            <polygon id="Path" fill="#9DDDE3" points="680.3 355.47 600.3 401.48 600.29 401.49 600.29 494.05 600.3 494.06 600.31 494.06 600.31 494.06 680.31 448.05 680.31 448.05 680.31 448.04 680.31 355.48 680.3 355.48"></polygon>
            <polygon id="Path" fill="#E1FAFB" points="688.57 451 688.57 451 688.58 451 689.25 450.62 768.56 404.98 688.57 358.43 688.57 358.43 688.57 358.43 688.56 358.43 688.56 358.43 608.56 404.44 688.56 451"></polygon>
            <polygon id="Path" fill="#C3EAEF" points="688.61 543.57 688.61 543.56 688.61 543.57 688.61 451.01 688.61 451.01 608.6 404.44 608.6 404.44 608.6 404.44 608.6 497 608.63 497.02"></polygon>
            <polygon id="Path" fill="#9DDDE3" points="768.61 404.98 688.6 450.99 688.59 451 688.59 543.56 688.61 543.57 688.61 543.57 688.61 543.57 768.61 497.56 768.61 497.56 768.61 497.55 768.61 404.98 768.61 404.99"></polygon>
            <polygon id="Path" fill="#E1FAFB" points="511.97 451 511.97 451 511.97 451 512.65 450.62 591.96 404.98 511.96 358.43 511.96 358.43 511.96 358.43 511.96 358.43 511.96 358.43 431.95 404.44 511.96 451"></polygon>
            <polygon id="Path" fill="#C3EAEF" points="512.01 543.57 512.01 543.56 512.01 543.57 512.01 451.01 512.01 451.01 431.99 404.44 431.99 404.44 431.99 404.44 431.99 497 432.03 497.02"></polygon>
            <polygon id="Path" fill="#9DDDE3" points="592 404.98 512 450.99 511.99 451 511.99 543.56 512 543.57 512 543.57 512.01 543.57 592.01 497.56 592.01 497.56 592.01 497.55 592.01 404.98 592 404.99"></polygon>
            <polygon id="Path" fill="#7FCCD6" points="600.27 500.51 600.27 500.51 600.27 500.51 600.95 500.12 680.26 454.49 600.26 407.94 600.26 407.94 600.26 407.94 600.26 407.94 600.26 407.94 520.25 453.94 600.26 500.5"></polygon>
            <polygon id="Path" fill="#6ABACC" points="600.31 593.07 600.31 593.07 600.31 593.07 600.31 500.51 600.31 500.51 520.3 453.95 520.3 453.95 520.29 453.95 520.29 546.51 520.33 546.53"></polygon>
            <polygon id="Path" fill="#5AB5BF" points="680.3 454.49 600.3 500.5 600.29 500.5 600.29 593.06 600.3 593.07 600.31 593.07 600.31 593.07 680.31 547.07 680.31 547.07 680.31 547.06 680.31 454.49 680.3 454.49"></polygon>
            <polygon id="Path" fill="#5AB5BF" points="422.2 604.91 422.2 604.9 422.21 604.91 423.6 604.11 586.85 510.18 422.19 414.36 422.19 414.36 422.19 414.36 422.18 414.36 422.18 414.36 257.5 509.06 422.18 604.89"></polygon>
            <polygon id="Path" fill="#46A0AF" points="422.28 795.44 422.28 795.44 422.28 795.44 422.28 604.92 422.28 604.92 257.58 509.07 257.58 509.07 257.58 509.07 257.58 699.59 257.66 699.64"></polygon>
            <polygon id="Path" fill="#3C8DA0" points="586.94 510.18 422.26 604.88 422.24 604.9 422.24 795.42 422.27 795.44 422.28 795.44 422.28 795.44 586.95 700.74 586.95 700.75 586.95 700.72 586.95 510.18 586.94 510.19"></polygon>
            <polygon id="Path" fill="#3C8DA0" points="603.71 293.02 603.71 293.01 603.72 293.02 605.1 292.22 768.35 198.29 603.69 102.47 603.69 102.47 603.69 102.47 603.69 102.47 603.69 102.47 439.01 197.17 603.69 293"></polygon>
            <polygon id="Path" fill="#20738C" points="603.78 483.55 603.78 483.54 603.79 483.55 603.79 293.03 603.79 293.03 439.09 197.18 439.09 197.18 439.09 197.18 439.09 387.7 439.16 387.75"></polygon>
            <polygon id="Path" fill="#0E516B" points="768.45 198.29 603.76 292.99 603.75 293.01 603.75 483.53 603.78 483.55 603.78 483.55 603.78 483.55 768.46 388.85 768.46 388.85 768.46 388.83 768.46 198.29 768.45 198.3"></polygon>
            <polygon id="Path" fill="#E1FAFB" points="422.15 396.02 422.15 396.02 422.16 396.02 423.55 395.22 586.8 301.29 422.14 205.47 422.14 205.47 422.14 205.47 422.13 205.47 422.13 205.47 257.45 300.17 422.13 396.01"></polygon>
            <polygon id="Path" fill="#C3EAEF" points="422.23 586.55 422.23 586.55 422.23 586.55 422.23 396.03 422.23 396.03 257.53 300.18 257.53 300.18 257.53 300.18 257.53 490.7 257.61 490.75"></polygon>
            <polygon id="Path" fill="#9DDDE3" points="586.89 301.29 422.21 396 422.19 396.01 422.19 586.53 422.22 586.55 422.22 586.55 422.23 586.55 586.9 491.86 586.9 491.86 586.9 491.83 586.9 301.3 586.89 301.3"></polygon>
        </g>
    </g>
</svg>