<svg xmlns="http://www.w3.org/2000/svg" xmlns:xlink="http://www.w3.org/1999/xlink" width="50" height="50" viewBox="0 0 50 50">
    <defs>
        <path id="a" d="M3 3h43.186v43.185H3z"/>
        <path id="c" d="M0 .398h39.601V40H.001z"/>
    </defs>
    <g fill="none" fill-rule="evenodd">
        <mask id="b" fill="#fff">
            <use xlink:href="#a"/>
        </mask>
        <g mask="url(#b)">
            <g transform="translate(5 5)">
                <mask id="d" fill="#fff">
                    <use xlink:href="#c"/>
                </mask>
                <path fill="#333" d="M37.281 23.68H2.321V3.879c0-.64.52-1.16 1.16-1.16h32.64c.64 0 1.16.52 1.16 1.16v19.8zm0 3.48c0 .64-.52 1.16-1.16 1.16H3.481c-.64 0-1.16-.52-1.16-1.16V26h34.96v1.16zm-20.96 5.879h6.96V30.64h-6.96v2.398zm11.402 4.64H11.878a3.487 3.487 0 0 1 3.282-2.32h9.281c1.513 0 2.804.97 3.282 2.32zM36.121.399H3.481A3.485 3.485 0 0 0 0 3.878V27.16a3.484 3.484 0 0 0 3.48 3.48H14v2.516a5.81 5.81 0 0 0-4.642 5.684c0 .64.52 1.16 1.16 1.16h18.564c.64 0 1.16-.52 1.16-1.16a5.81 5.81 0 0 0-4.64-5.684V30.64H36.12a3.484 3.484 0 0 0 3.48-3.481V3.879a3.485 3.485 0 0 0-3.48-3.481z" mask="url(#d)"/>
            </g>
        </g>
        <path fill="#333" d="M17.84 12.437h-4.718a1.161 1.161 0 0 0 0 2.32h4.718a1.16 1.16 0 0 0 0-2.32M17.84 17.078h-4.718a1.161 1.161 0 0 0 0 2.32h4.718a1.16 1.16 0 1 0 0-2.32M17.84 21.718h-4.718a1.161 1.161 0 0 0 0 2.32h4.718a1.16 1.16 0 1 0 0-2.32M35.243 21.04l-3.48 2.102v-4.3l3.48-2.103v4.3zm-4.641-4.208l-3.555-2.148 3.572-2.152 3.544 2.148-3.561 2.152zm-1.161 6.31l-3.48-2.103v-4.3l3.48 2.103v4.3zm7.551-9.46c-.137-.08 1.033.627-5.77-3.498a1.16 1.16 0 0 0-1.2 0l-5.806 3.496c-.354.206-.576.59-.576 1.002v7.011c0 .407.213.783.561.993l5.801 3.506c.374.226.84.218 1.2 0l5.801-3.506c.347-.21.56-.586.56-.993v-7.01c0-.695-.563-.993-.571-1z" mask="url(#b)"/>
    </g>
</svg>
