<svg xmlns="http://www.w3.org/2000/svg" xmlns:xlink="http://www.w3.org/1999/xlink" width="50" height="50" viewBox="0 0 50 50">
    <defs>
        <path id="a" d="M0 .128h17.84V33H0z"/>
    </defs>
    <g fill="none" fill-rule="evenodd">
        <path fill="#333" d="M43.436 29.656c0 .54-.21 1.046-.591 1.428l-5.009 5.009a1.131 1.131 0 0 0-.149.183c-.012.016-.022.034-.032.052a.764.764 0 0 0-.029.048l-.026.055c-.008.017-.017.034-.024.052l-.02.054c-.007.019-.014.037-.019.056l-.015.056c-.005.02-.011.039-.015.059a.725.725 0 0 0-.009.065l-.008.051c-.003.04-.006.08-.006.12v.085h-5.791v-7.784l4.657-4.657a2.003 2.003 0 0 1 1.717-.57l.011.002c.424.063.815.259 1.125.568.38.381.59.888.59 1.427a2.01 2.01 0 0 1-.59 1.427l-3.188 3.187a1.201 1.201 0 1 0 1.7 1.7l3.188-3.187a4.396 4.396 0 0 0 1.295-3.127c0-1.182-.46-2.292-1.295-3.127a4.407 4.407 0 0 0-1.501-.987v-4.478a2.019 2.019 0 0 1 3.443-1.427c.381.381.591.888.591 1.427v12.233zM38.772 41.45a2.02 2.02 0 0 1-2.017 2.018h-4.333a2.02 2.02 0 0 1-2.017-2.018v-2.017h8.367v2.017zm5.773-27.154A4.39 4.39 0 0 0 41.418 13a4.427 4.427 0 0 0-4.421 4.423v4.239c-.885.157-1.7.577-2.348 1.226l-5.009 5.008a1.205 1.205 0 0 0-.351.85v8.282h-.086c-.664 0-1.203.539-1.203 1.203v3.219a4.427 4.427 0 0 0 4.422 4.422h4.333a4.427 4.427 0 0 0 4.422-4.422v-3.219c0-.564-.388-1.036-.912-1.166l4.28-4.281a4.39 4.39 0 0 0 1.295-3.129V17.423c0-1.182-.46-2.292-1.295-3.127zM25.811 17.833a1.203 1.203 0 0 0-1.119 0l-2.818 1.482.54-3.138a1.206 1.206 0 0 0-.348-1.065l-2.279-2.222 3.15-.458c.392-.057.73-.303.905-.658l1.41-2.855 1.41 2.855c.174.355.512.601.904.658l3.151.458-2.28 2.222a1.208 1.208 0 0 0-.346 1.065l.538 3.138-2.818-1.482zm4.415 4.882h.004a1.202 1.202 0 0 0 1.171-1.471l-.833-4.851 3.572-3.482a1.202 1.202 0 0 0-.666-2.051l-4.936-.717-2.207-4.473a1.204 1.204 0 1 0-2.158 0l-2.207 4.473-4.936.717a1.203 1.203 0 0 0-.667 2.051l3.572 3.482-.843 4.917a1.202 1.202 0 0 0 1.744 1.267l4.415-2.321 4.416 2.321c.176.092.368.138.56.138z"/>
        <g transform="translate(5 13)">
            <mask id="b" fill="#fff">
                <use xlink:href="#a"/>
            </mask>
            <path fill="#333" d="M15.435 28.578a2.02 2.02 0 0 1-2.018 2.018H9.085a2.02 2.02 0 0 1-2.016-2.018V26.56h8.366v2.017zM2.405 16.783V4.55c0-.54.21-1.045.591-1.427.38-.38.886-.59 1.425-.59h.001A2.02 2.02 0 0 1 6.44 4.55v4.48a4.379 4.379 0 0 0-1.5.986 4.388 4.388 0 0 0-1.296 3.126c0 1.182.46 2.292 1.295 3.127l3.187 3.187a1.202 1.202 0 1 0 1.701-1.7l-3.188-3.187a2.005 2.005 0 0 1-.59-1.427c0-.54.21-1.045.59-1.426a2.02 2.02 0 0 1 2.853 0l4.656 4.656v7.784h-5.79v-.085c0-.04-.003-.08-.007-.12l-.007-.05-.01-.066a.604.604 0 0 0-.014-.058l-.015-.056-.019-.056-.02-.055c-.008-.017-.017-.034-.024-.052l-.027-.054c-.008-.017-.019-.033-.028-.05-.01-.016-.02-.034-.032-.051-.012-.018-.026-.035-.039-.053a1.307 1.307 0 0 0-.111-.13l-5.008-5.01a1.998 1.998 0 0 1-.59-1.427zm14.232 7.373h-.085v-8.282a1.21 1.21 0 0 0-.35-.85l-5.01-5.008a4.395 4.395 0 0 0-2.348-1.224V4.55A4.427 4.427 0 0 0 4.422.128c-1.18 0-2.292.46-3.127 1.295A4.393 4.393 0 0 0 0 4.55v12.23a4.393 4.393 0 0 0 1.295 3.132l4.282 4.28a1.2 1.2 0 0 0-.912 1.166v3.22A4.427 4.427 0 0 0 9.085 33h4.332a4.428 4.428 0 0 0 4.423-4.422v-3.22c0-.664-.538-1.202-1.203-1.202z" mask="url(#b)"/>
        </g>
    </g>
</svg>
