<svg xmlns="http://www.w3.org/2000/svg" xmlns:xlink="http://www.w3.org/1999/xlink" width="50" height="50" viewBox="0 0 50 50">
    <defs>
        <path id="a" d="M0 .817h38.642V46H0z"/>
    </defs>
    <g fill="none" fill-rule="evenodd">
        <g transform="translate(6 2)">
            <mask id="b" fill="#fff">
                <use xlink:href="#a"/>
            </mask>
            <path fill="#333" d="M36.023 19.316c0 9.055-4.17 15.042-7.668 18.47-3.994 3.912-8.233 5.595-9.034 5.595-.8 0-5.04-1.683-9.033-5.594C6.79 34.357 2.62 28.37 2.62 19.316v-8.558l.09-.026C8.532 9.048 13.945 6.74 19.26 3.679l.062-.036.062.036a76.698 76.698 0 0 0 16.55 7.052l.09.026v8.559zm2.62-9.55c0-.59-.397-1.108-.965-1.263-6.082-1.667-12.2-4.262-17.69-7.505a1.32 1.32 0 0 0-1.332 0C13.004 4.336 7.217 6.789.963 8.504A1.311 1.311 0 0 0 0 9.766v9.55c0 9.968 4.598 16.563 8.456 20.34C12.678 43.797 17.48 46 19.321 46c1.842 0 6.642-2.204 10.865-6.342 3.858-3.78 8.456-10.374 8.456-20.342v-9.55z" mask="url(#b)"/>
        </g>
        <path fill="#333" d="M34.937 19.293l-12.58 12.58a.903.903 0 0 1-.64.255.9.9 0 0 1-.637-.255l-6.027-6.026a.907.907 0 0 1 0-1.276.926.926 0 0 1 1.278 0l4.4 4.401c.517.516 1.458.516 1.974 0L33.66 18.017a.927.927 0 0 1 1.277 0c.17.17.264.397.264.638a.897.897 0 0 1-.264.638m3.054-.639c0-.988-.384-1.915-1.08-2.61-1.393-1.392-3.832-1.392-5.225 0l-9.968 9.967-3.415-3.414c-.663-.664-1.615-1.045-2.611-1.045-.996 0-1.948.381-2.611 1.045a3.697 3.697 0 0 0 0 5.224l6.026 6.026a3.67 3.67 0 0 0 2.61 1.081c.988 0 1.915-.384 2.614-1.08l12.579-12.58a3.67 3.67 0 0 0 1.08-2.614"/>
    </g>
</svg>
