<svg xmlns="http://www.w3.org/2000/svg" xmlns:xlink="http://www.w3.org/1999/xlink" width="50" height="50" viewBox="0 0 50 50">
    <defs>
        <path id="a" d="M0 .031h45.45V28H0z"/>
    </defs>
    <g fill="none" fill-rule="evenodd">
        <g transform="translate(2 11)">
            <mask id="b" fill="#fff">
                <use xlink:href="#a"/>
            </mask>
            <path fill="#333" d="M3.277 2.216c-.603 0-1.093.49-1.093 1.093v21.414c0 .602.49 1.092 1.093 1.092h38.895c.603 0 1.093-.49 1.093-1.092V3.309c0-.603-.49-1.093-1.093-1.093H3.279zM42.172 28H3.279A3.28 3.28 0 0 1 0 24.723V3.309A3.281 3.281 0 0 1 3.276.03h38.895a3.282 3.282 0 0 1 3.279 3.278v21.414A3.281 3.281 0 0 1 42.171 28z" mask="url(#b)"/>
        </g>
        <path fill="#333" d="M35.87 32.445l-6.557-7.211h4.37v-7.647h4.371v7.647h4.37l-6.555 7.21zm-27.315 0V17.587h4.371l4.37 5.462 4.37-5.462h4.37v14.858h-4.37v-8.522l-4.37 5.463-4.37-5.463v8.522h-4.37z"/>
    </g>
</svg>
