<svg xmlns="http://www.w3.org/2000/svg" xmlns:xlink="http://www.w3.org/1999/xlink" width="50" height="50" viewBox="0 0 50 50">
    <defs>
        <path id="a" d="M3 3h43.186v43.185H3z"/>
    </defs>
    <g fill="none" fill-rule="evenodd">
        <mask id="b" fill="#fff">
            <use xlink:href="#a"/>
        </mask>
        <path fill="#333" d="M33.45 23.197c.775 0 1.406.63 1.406 1.405 0 .774-.631 1.405-1.405 1.405a1.406 1.406 0 0 1 0-2.81m-8.85 8.849c.775 0 1.406.63 1.406 1.405 0 .774-.631 1.405-1.406 1.405a1.406 1.406 0 0 1 0-2.81m-.992-17.286v-.001a1.407 1.407 0 0 1 2.397.994c0 .774-.63 1.404-1.405 1.404a1.406 1.406 0 0 1-.993-2.397m19.933 10.197l-18.582 18.58a.52.52 0 0 1-.73.003L5.647 24.959a.52.52 0 0 1-.002-.73l12.839-12.826 2.63 2.629a3.851 3.851 0 0 0-.417 1.72c0 1.715 1.116 3.157 2.654 3.682V29.77c-1.538.524-2.654 1.967-2.654 3.68a3.909 3.909 0 0 0 3.904 3.906 3.91 3.91 0 0 0 3.906-3.905c0-1.714-1.118-3.157-2.656-3.681V19.434c.155-.053.303-.111.448-.181l3.652 3.652a3.857 3.857 0 0 0-.404 1.697 3.909 3.909 0 0 0 3.904 3.905 3.91 3.91 0 0 0 3.905-3.905 3.91 3.91 0 0 0-3.905-3.905c-.63 0-1.216.164-1.743.429l-3.631-3.63c.266-.527.43-1.114.43-1.743a3.91 3.91 0 0 0-3.906-3.905c-.62 0-1.2.159-1.72.417l-2.628-2.63 3.99-3.987a.525.525 0 0 1 .369-.151c.132 0 .263.05.362.148l18.45 18.45c.035.046.073.089.114.13a.521.521 0 0 1 .003.732m1.939-2.308a1.14 1.14 0 0 0-.154-.188L26.739 3.875a3.028 3.028 0 0 0-4.26.002L3.875 22.464a3.027 3.027 0 0 0 .003 4.26L22.464 45.31a3.004 3.004 0 0 0 2.128.876c.77 0 1.544-.293 2.132-.878L45.31 26.72a3.028 3.028 0 0 0 .169-4.072" mask="url(#b)"/>
    </g>
</svg>
