<svg xmlns="http://www.w3.org/2000/svg" width="50" height="50" viewBox="0 0 50 50">
    <path fill="#333" fill-rule="evenodd" d="M40.452 35.865c.566.567.348 1.781-.469 2.598l-4.996 4.995a2.171 2.171 0 0 1-3.066 0l-1.375-1.375a15.272 15.272 0 0 0 4.811-3.251l4.031-4.031 1.064 1.064zm-19.187 4.426l-.033-.007a.954.954 0 0 0-.077-.016c-.019-.004-.038-.006-.057-.008-.022-.003-.043-.006-.065-.007l-.068-.004h-.055a.867.867 0 0 0-.072.003l-.053.005-.07.01-.055.011a1.388 1.388 0 0 0-.124.032l-.055.02-.063.025-.05.024a.815.815 0 0 0-.167.096 6.988 6.988 0 0 1-.055.04l-.044.035-.06.055-.024.021-2.832 2.832a2.171 2.171 0 0 1-3.066 0l-4.995-4.995a2.344 2.344 0 0 1-.703-1.53c-.026-.512.138-.973.465-1.299l1.784-1.785.083.002a4.758 4.758 0 0 0 3.386-1.403 4.794 4.794 0 0 0 1.072-5.129 4.768 4.768 0 0 0 2.39-1.298 4.767 4.767 0 0 0 1.35-2.704c.387.099.787.151 1.196.151a4.759 4.759 0 0 0 3.386-1.403 4.759 4.759 0 0 0 1.403-3.386c0-.408-.05-.809-.15-1.194a4.745 4.745 0 0 0 2.703-1.354 4.794 4.794 0 0 0 0-6.772L26.381 8.25l1.02-1.019a2.206 2.206 0 0 1 3.762 1.558c0 .589-.229 1.142-.646 1.558a1.292 1.292 0 0 0 1.83 1.828 2.207 2.207 0 0 1 3.116 0c.86.86.86 2.258 0 3.118a1.285 1.285 0 0 0-.379.913 1.291 1.291 0 0 0 2.206.914c.416-.416.97-.645 1.558-.646.59 0 1.143.23 1.56.646.416.417.645.97.645 1.559 0 .581-.223 1.127-.629 1.541l-.018.018-1.852 1.854a1.292 1.292 0 0 0-.106 1.709l.067.085a1.29 1.29 0 0 0 1.68.314 2.203 2.203 0 0 1 2.685.337 2.207 2.207 0 0 1 0 3.117l-2.967 2.966-.017.018-6.367 6.367a12.74 12.74 0 0 1-12.264 3.286zM6.241 27.668a2.208 2.208 0 0 1-.014-3.131c.417-.416.97-.645 1.56-.645.588 0 1.142.229 1.56.646l2.964 2.966a2.206 2.206 0 0 1-1.557 3.763c-.109 0-.216-.008-.32-.023l-.025-.004a2.196 2.196 0 0 1-1.205-.609l-.01-.011-2.953-2.952zm2.46-10.548c.416-.416.97-.645 1.558-.645a2.19 2.19 0 0 1 1.558.645l3.96 3.96a2.206 2.206 0 0 1-1.562 3.759 2.187 2.187 0 0 1-1.559-.646l-.016-.015-3.927-3.928-.013-.013a2.188 2.188 0 0 1-.645-1.558c0-.589.23-1.142.645-1.559zm4.938-1.833a2.206 2.206 0 0 1 1.565-3.757 2.188 2.188 0 0 1 1.561.649l3.952 3.952.007.007.982.982c.417.416.646.97.646 1.559s-.229 1.142-.645 1.558c-.417.417-.97.646-1.559.646a2.185 2.185 0 0 1-1.558-.646l-.016-.015-.97-.969a.018.018 0 0 0-.004-.005l-3.956-3.955v-.001l-.005-.005zm4.951-8.056a2.185 2.185 0 0 1 1.558-.646c.59 0 1.142.229 1.56.646l3.954 3.955c.86.86.86 2.259 0 3.118a2.19 2.19 0 0 1-1.558.645 2.188 2.188 0 0 1-1.558-.645l-.002-.002-3.953-3.953-.01-.009a2.207 2.207 0 0 1 .01-3.109zm23.168 25.2l2.95-2.949a4.795 4.795 0 0 0-1.997-7.971 4.754 4.754 0 0 0 .927-2.832 4.751 4.751 0 0 0-1.404-3.386 4.751 4.751 0 0 0-3.547-1.4 4.78 4.78 0 0 0-4.94-4.943l.001-.161a4.758 4.758 0 0 0-1.402-3.386 4.795 4.795 0 0 0-6.773 0l-1.019 1.02-1.02-1.019A4.756 4.756 0 0 0 20.147 4a4.758 4.758 0 0 0-3.385 1.403 4.777 4.777 0 0 0-1.397 3.546c-.054-.002-.107-.004-.16-.004a4.78 4.78 0 0 0-4.783 4.949c-.056-.002-.11-.004-.164-.004a4.754 4.754 0 0 0-3.385 1.402 4.759 4.759 0 0 0-1.403 3.387c0 1.033.325 2.016.926 2.832A4.78 4.78 0 0 0 4.4 22.709a4.795 4.795 0 0 0 .002 6.774l2.953 2.953c.004.004.008.009.013.012.177.178.366.339.565.485l-.874.873c-.849.85-1.282 2.007-1.217 3.259a4.918 4.918 0 0 0 1.456 3.225l4.995 4.996a4.74 4.74 0 0 0 3.361 1.39 4.742 4.742 0 0 0 3.361-1.39l2.322-2.322a15.36 15.36 0 0 0 6.435 0l2.322 2.322a4.739 4.739 0 0 0 3.361 1.39 4.74 4.74 0 0 0 3.36-1.39l4.996-4.996c1.853-1.853 2.064-4.658.47-6.253l-1.064-1.064.524-.525a.281.281 0 0 0 .018-.017z"/>
</svg>
