<svg xmlns="http://www.w3.org/2000/svg" xmlns:xlink="http://www.w3.org/1999/xlink" width="170" height="110" viewBox="0 0 170 110">
    <defs>
        <path id="a" d="M0 0h154v19H0z"/>
    </defs>
    <g fill="none" fill-rule="evenodd">
        <path d="M.8 0h169v110H.8z"/>
        <g transform="translate(9 46)">
            <mask id="b" fill="#fff">
                <use xlink:href="#a"/>
            </mask>
            <path fill="#FFF" d="M14.49 4.711c0-.645-.526-1.177-1.163-1.177H4.918v4.978h8.409c.637 0 1.163-.533 1.163-1.178V4.711zm4.918-.835V8.17c0 2.242-1.615 3.876-3.83 3.876H4.918V19H0V0h15.578c2.215 0 3.83 1.634 3.83 3.876zm16.445.835c0-.645-.524-1.177-1.163-1.177H26.28v4.978h8.409c.639 0 1.163-.533 1.163-1.178V4.711zm1.446 7.32L41.29 19h-5.291l-3.983-6.954H26.28V19h-4.918V0h15.58c2.214 0 3.829 1.634 3.829 3.876V8.17c0 2.119-1.444 3.695-3.473 3.861zM153.711 1.767c0-.813-.67-1.474-1.493-1.474-.823 0-1.493.661-1.493 1.474 0 .812.67 1.474 1.493 1.474.822 0 1.493-.662 1.493-1.474zm.289 0c0 .986-.809 1.767-1.782 1.767-.974 0-1.783-.781-1.783-1.767 0-.986.809-1.767 1.783-1.767.974 0 1.782.78 1.782 1.767zm-1.373-.397a.096.096 0 0 0-.096-.098h-.701v.414h.701a.097.097 0 0 0 .096-.098V1.37zm.12.608l.332.58h-.44l-.332-.579h-.477v.579h-.408V.978h1.295c.184 0 .32.135.32.323v.356c0 .176-.12.308-.29.32zM80.88 0H68.794c-2.216 0-3.83 1.634-3.83 3.876v11.248c0 2.242 1.614 3.876 3.83 3.876H80.88c2.215 0 3.829-1.634 3.829-3.876v-3.078h-4.499l-1.958 3.42H71.42L68.005 9.5l3.415-5.965h6.833l1.958 3.42h4.499V3.876C84.71 1.634 83.096 0 80.881 0zm22.757 9.5l-3.417-5.966H93.39l-3.417 5.965 3.417 5.967h6.831l3.417-5.967zm3.04-5.624v11.248c0 2.242-1.613 3.876-3.829 3.876H90.762c-2.215 0-3.829-1.634-3.829-3.876V3.876C86.933 1.634 88.547 0 90.762 0h12.087c2.216 0 3.829 1.634 3.829 3.876zm16.76.835c0-.645-.525-1.177-1.162-1.177h-8.41v4.978h8.41c.637 0 1.162-.533 1.162-1.178V4.711zm1.446 7.32L128.875 19h-5.293l-3.981-6.954h-5.735V19h-4.917V0h15.579c2.215 0 3.828 1.634 3.828 3.876V8.17c0 2.119-1.441 3.695-3.472 3.861zM59.557 9.5L56.14 3.534H49.31l-3.417 5.965 3.417 5.967h6.831L59.557 9.5zm3.041-5.623v11.248c0 2.242-1.615 3.876-3.83 3.876H46.681c-2.215 0-3.83-1.634-3.83-3.876V3.876c0-2.242 1.615-3.876 3.83-3.876h12.087c2.215 0 3.83 1.634 3.83 3.876zM130.492 0h18.581v3.534H135.41v4.18h8.747v3.533h-8.747v4.22h13.663V19h-18.58V0z" mask="url(#b)"/>
        </g>
        <path fill="#FF5200" d="M82.03 52L80 55.5l2.03 3.5h4.056l2.03-3.5-2.03-3.5z"/>
    </g>
</svg>
