<svg xmlns="http://www.w3.org/2000/svg" xmlns:xlink="http://www.w3.org/1999/xlink" width="170" height="110" viewBox="0 0 170 110">
    <defs>
        <path id="a" d="M.235.129h28.72V71H.235z"/>
        <path id="c" d="M.312.277h8.422v21.421H.312z"/>
    </defs>
    <g fill="none" fill-rule="evenodd">
        <path fill="#FFF" d="M8 48c3.964-1.038 9.86-1.9 17.577-2.937L26 44c-10.756 2.066-18 4-18 4M34 62.458L52 72 36.318 61zM34.87 42.618L34 44c3.375-.218 4.55-.368 7-.455L40.177 42c-2.048.182-2.827.36-5.308.618"/>
        <path fill="#FFF" d="M47.597 41c-1.503 0-2.262.084-4.038.323l1.085 2.766s.41.067.612.117C57.07 47.334 34 62.456 34 62.456s1.345 1.383 4.249-.262C48.877 56.161 64.36 40.994 47.597 41"/>
        <path fill="#FFF" d="M54 71l-5.776-16c-.329.237-.896.795-1.224 1.084L54 71zM36 20l3 15"/>
        <g transform="translate(10 20)">
            <mask id="b" fill="#fff">
                <use xlink:href="#a"/>
            </mask>
            <path fill="#FFF" d="M28.955 15.197L.235 71 26.305.13" mask="url(#b)"/>
        </g>
        <path fill="#FFF" d="M36 20l2 16M38.3 35.602L45.69 52A42.31 42.31 0 0 1 47 50.395L36 20M130 71.592c-.479.27-1.03.408-1.644.408-.714 0-1.287-.22-1.711-.664-.432-.435-.645-1.03-.645-1.77 0-.749.236-1.37.71-1.848.474-.477 1.082-.718 1.83-.718.51 0 .947.083 1.313.24v.77c-.373-.236-.826-.354-1.361-.354-.503 0-.915.173-1.236.512-.32.347-.48.802-.48 1.356 0 .575.15 1.016.442 1.342.292.316.7.482 1.192.482.337 0 .617-.06.844-.192v-1.204h-1.016v-.643H130v2.283zM135.67 70.054l-.602-1.974a2.048 2.048 0 0 1-.068-.38h-.02c-.016.152-.04.28-.064.38l-.607 1.974h1.36zM137 72h-.74l-.402-1.3h-1.728l-.39 1.3H133l1.635-5h.742L137 72zM145.282 72v-3.225c0-.287.01-.624.04-1.01h-.02a3.61 3.61 0 0 1-.144.55L143.728 72h-.479l-1.442-3.662a3.436 3.436 0 0 1-.139-.574h-.023c.025.302.036.667.036 1.096V72H141v-5h1.015l1.278 3.306c.102.257.165.465.199.635h.023c.034-.135.11-.35.213-.65L145.025 67H146v5h-.718zM153 72h-3v-5h2.876v.657h-2.041v1.475h1.895v.665h-1.895v1.538H153zM157.004 70.914c.363.303.791.45 1.282.45.635 0 .951-.216.951-.658 0-.125-.04-.24-.104-.339a1.208 1.208 0 0 0-.282-.268 7.621 7.621 0 0 0-.696-.367c-.434-.208-.726-.423-.896-.637a1.166 1.166 0 0 1-.259-.753c0-.416.167-.748.49-.982.323-.242.732-.36 1.235-.36.472 0 .842.062 1.077.18v.768c-.292-.209-.66-.313-1.092-.313-.282 0-.51.056-.678.174a.537.537 0 0 0-.253.47c0 .18.056.332.185.442.123.118.39.285.798.479.471.213.791.448.972.67.178.229.266.484.266.78 0 .436-.15.768-.46 1.003-.312.229-.736.347-1.29.347-.2 0-.424-.028-.672-.076-.251-.056-.445-.117-.574-.208v-.802zM73 63h-1.973l-3.496-10.028h-2.055l-.055-1.584 5.28-.005v-7.728h-4.823V63H64V42h7.082c.442 0 .805.142 1.08.418.283.277.42.637.42 1.075v7.966c0 1.01-.685 1.52-2.052 1.52-.14 0-.334-.007-.596-.02-.264-.012-.452-.025-.568-.025C70.58 56.282 71.792 59.63 73 63M87.256 56.692l-1.778-11.344-1.793 11.344h3.571zM90 63h-1.796l-.706-4.657h-4.052L82.733 63H81v-.058L84.62 42h1.784L90 63zM108 42.122l-2.684 8.494c-.34.85-.779 2.267-1.337 4.25V63h-1.966v-8.133c-.13-.677-.33-1.393-.603-2.145-.451-1.289-.698-1.99-.736-2.106L98 42.122V42h1.984l3.036 10.503L106.024 42H108v.122zM122.26 56.692l-1.773-11.344-1.8 11.344h3.573zM125 63h-1.793l-.713-4.657h-4.037L117.74 63H116v-.058L119.626 42h1.777L125 63z"/>
        <g transform="translate(151 42)">
            <mask id="d" fill="#fff">
                <use xlink:href="#c"/>
            </mask>
            <path fill="#FFF" d="M8.734 21.698H6.762l-4.66-10.294v10.294H.313V.277h1.79v9.622L6.334.277h1.95V.4L3.716 10.595z" mask="url(#d)"/>
        </g>
        <path fill="#FFF" d="M142 63h-1.97l-3.497-10.033h-2.06l-.051-1.573 5.278-.019V43.65h-4.823V63H133V42h7.08c.448 0 .803.135 1.087.412.275.277.414.638.414 1.07v7.978c0 1.01-.683 1.512-2.051 1.512-.142 0-.337-.005-.603-.018a11.555 11.555 0 0 0-.565-.018c1.224 3.343 2.43 6.7 3.638 10.064"/>
    </g>
</svg>
