<svg xmlns="http://www.w3.org/2000/svg" width="170" height="110" viewBox="0 0 170 110">
    <g fill="none" fill-rule="evenodd">
        <path d="M.2 0h169v110H.2z"/>
        <g fill-rule="nonzero">
            <g fill="#FFF">
                <path d="M139.703 68.268h-8.838V66h-3.393v2.268h-9.236v8.69c0 4.336-.86 8.325-2.036 11.072l2.863 1.97c.96-2.516 1.573-5.148 1.904-8.74l1.589 1.838c.447-.596.728-1.109 1.225-1.92v8.789h2.813V76.113a28.833 28.833 0 0 0 1.407-3.89l-2.813-.76c-.91 3.26-2.35 5.99-4.155 8.64.083-1.242.1-2.285.1-3.146v-5.776h18.57v-2.913z"/>
                <path d="M140.2 74.673h-2.83v-2.88h-2.98v2.88h-6.77v2.963h6.77v8.127c0 .53-.281.778-.827.778-.282 0-2.731-.182-2.731-.182l.397 3.144h3.906c1.49 0 2.235-.86 2.235-2.565v-9.302h2.83v-2.963z"/>
                <path d="M129.855 78.58l-2.234 1.456c1.042 1.54 1.688 2.681 2.863 4.667l2.433-1.72c-1.175-1.673-1.953-2.914-3.062-4.404z"/>
            </g>
            <path fill="#FFF" d="M107.503 82.946c1.474-2.465 2.295-4.524 2.831-9.47h1.592v-2.903h-7.137c.403-1.005 1.106-2.757 1.408-3.908L103.248 66c-1.038 3.584-2.261 5.968-3.434 8.449L97 74.416l.033-3.892h3.434l-.033-2.821H88.205l.034 2.821h5.779l-.033 13.249c-.72.178-.788.227-1.542.438V73.62h-2.797v11.222l-2.43.6 1.006 3.081c4.573-1.102 9.582-2.886 12.748-4.33l-.335-2.675c-.838.39-2.48.876-3.618 1.297v-5.465h1.34l-.402.52 2.362 1.653c.419-.616.703-.989 1.122-1.88.838 2.626 1.357 3.356 2.412 5.107-1.792 1.817-3.015 2.74-5.779 4.411l1.91 2.692c2.295-1.719 4.12-3.39 5.578-4.703 1.206 1.33 2.747 3.13 4.624 4.687l1.976-2.595c-2.043-1.524-3.434-2.724-4.657-4.297zm-1.96-2.19c-1.206-2.253-1.842-3.55-2.261-6.55a4.56 4.56 0 0 0 .368-.747h3.652c-.285 3.503-.57 4.865-1.759 7.298z"/>
            <g fill="#FFF">
                <path d="M83.2 73.804h-5.89v-1.943h4.996v-2.628H77.31V66h-3.094v3.233H69.4v2.628h4.815v1.943h-5.41v2.76h8.14v1.714h-8.14v2.906h8.14v4.718c0 .588-.281.882-.827.882-.215 0-2.002-.147-2.002-.147l.397 3.216h3.326c1.49 0 2.234-.882 2.234-2.629v-6.04h3.06v-2.906h-3.077v-1.715H83.2v-2.759zM68.142 68.612H60.2v17.96h7.942v-17.96zm-5.13 7.347v-4.898h2.152v4.898h-2.151zm0 7.837V78.57h2.152v5.225h-2.151z"/>
                <path d="M71.865 81.837l-2.233 1.322c.81 1.11 1.39 2.155 2.35 3.739l2.448-1.486c-.926-1.355-1.638-2.383-2.565-3.575z"/>
            </g>
            <g fill="#FFF">
                <path d="M44.976 76.929l4.538.033v-1.628h-4.75v1.529c-.442-.18-.621-.247-.964-.427v-4.11h6.563v4.307h2.923v-6.428h-9.47v-.986h8.343V67H32.241v2.22h8.343v.985H31.31v6.428h2.923v-4.307h6.35v4.159c-.31.18-.62.28-.946.41v-1.56h-4.62v1.627h4.49c-2.76 1.38-6.303 2.383-9.29 2.794l.979 2.663c.718-.18 1.47-.361 2.367-.657v2.12h13.208c-1.518.986-2.432 1.496-4.44 2.318.506 1.348 1.991 1.447 3.2.789 2.481-1.331 4.26-2.515 5.6-3.764v-1.332c.8.23 1.453.395 2.057.526l1.012-2.696c-2.922-.394-6.204-1.413-9.224-2.794zm5.142 4.701h-6.253v-2.235h-3.232v2.235h-6.351c3.396-1.101 5.78-2.318 7.983-3.616 2.482 1.38 4.8 2.531 7.853 3.616z"/>
                <path d="M42.429 86.315c-2.4-.822-2.988-1.003-4.996-1.644l-1.127 2.187 10.629 4.093 1.208-2.63s-1.404-.494-2.629-.937c-1.387-.773-1.028-.888-3.085-1.069zM49.629 73.247H44.73v1.643h4.898zM39.67 73.247h-4.735v1.643h4.734z"/>
            </g>
            <path fill="#FFF" d="M52.569 34.729c5.093 0 8.718.723 11.299 1.671v-4.018C61.675 31.707 58.2 31 52.653 31c-7.066 0-10.44 1.366-12.109 2.973C38.993 35.452 38.2 37.445 38.2 40s.793 4.548 2.344 6.027C42.247 47.682 45.536 49 52.434 49c5.514 0 8.904-.74 11.012-2.748 1.147-1.11 1.754-2.652 1.754-5.336v-2.234H49.82v3.36h10.776c.017.385.017 1.269-.607 1.863-1.13 1.077-3.896 1.43-7.555 1.43-4.486 0-6.847-.787-7.944-1.847-.792-.788-1.23-1.913-1.23-3.488 0-1.527.455-2.732 1.315-3.568 1.012-.932 3.373-1.703 7.994-1.703 0 0-4.621 0 0 0zM134.2 32h-5.526l-8.861 13.387L110.968 32H105.2l11.568 17h5.864z"/>
            <path fill="#C60000" d="M104.2 20h-4.784L68.2 60h4.849z"/>
            <path fill="#FFF" d="M96.965 34.021C95.389 32.446 92.365 31 85.708 31c-6.416 0-9.68 1.414-11.273 3.021C72.988 35.484 72.2 37.3 72.2 40s.788 4.5 2.235 5.962C76.011 47.538 79.18 49 85.708 49s9.68-1.43 11.257-3.021C98.412 44.516 99.2 42.7 99.2 40c0-2.732-.788-4.516-2.235-5.979zM85.788 45.304c-4.31 0-6.545-.884-7.51-1.849-.74-.739-1.27-1.703-1.27-3.535 0-1.833.45-2.813 1.255-3.6.98-.98 3.216-1.784 7.525-1.784 4.31 0 6.481.82 7.478 1.832.788.787 1.27 1.736 1.27 3.552s-.45 2.812-1.254 3.6c-.997 1.012-3.184 1.784-7.494 1.784z"/>
        </g>
    </g>
</svg>
