<svg xmlns="http://www.w3.org/2000/svg" width="169" height="110" viewBox="0 0 169 110">
    <g fill="none" fill-rule="evenodd">
        <path d="M0 0h169v110H0z"/>
        <g fill="#FFF" fill-rule="nonzero">
            <path d="M85 70.999L101 48l-16 9.66L69 48l16 22.999V71v-.001V71z"/>
            <path d="M85 55l16-9.462-16-26.537V19v.001L69 45.538zM34.783 87.363c.106 1.701 1.454 3.826 3.743 3.826 1.563 0 2.509-.744 3.173-1.701a.422.422 0 0 1 .74.165.412.412 0 0 1-.058.314c-.862 1.342-2.35 2.113-3.91 2.026-1.477 0-2.555-.8-3.342-1.674-.641-.706-1.129-1.905-1.129-3.352 0-1.423.417-2.573 1.252-3.45.834-.88 1.834-1.517 3.222-1.517 1.387 0 2.388.537 3.183 1.414 1.024 1.132 1.302 2.298 1.343 3.53a.414.414 0 0 1-.111.295.386.386 0 0 1-.282.124h-7.824zm3.684-4.577c-1.02.008-1.783.471-2.437 1.065-.655.594-1.103 1.717-1.211 2.757h7.291a4.453 4.453 0 0 0-1.134-2.662c-.58-.638-1.183-1.175-2.509-1.166v.006zM71.782 87.361c.101 1.701 1.454 3.824 3.743 3.828 1.564 0 2.508-.743 3.173-1.7a.422.422 0 0 1 .55-.093c.093.056.16.15.184.257a.412.412 0 0 1-.057.315c-.861 1.34-2.348 2.11-3.907 2.026-1.477 0-2.555-.801-3.343-1.674C71.49 89.611 71 88.412 71 86.965c0-1.422.417-2.572 1.252-3.45.834-.878 1.834-1.515 3.222-1.515 1.387 0 2.388.536 3.183 1.414 1.024 1.131 1.302 2.297 1.343 3.528a.414.414 0 0 1-.111.296.386.386 0 0 1-.282.123h-7.825zm3.684-4.575c-1.02.008-1.783.471-2.437 1.065-.655.593-1.104 1.715-1.211 2.755h7.289a4.45 4.45 0 0 0-1.132-2.655c-.58-.644-1.184-1.18-2.507-1.17l-.002.005zM93.78 87.361c.102 1.7 1.456 3.825 3.746 3.825 1.564 0 2.51-.744 3.175-1.7a.423.423 0 0 1 .74.164.411.411 0 0 1-.057.314c-.862 1.343-2.352 2.116-3.914 2.03-1.477 0-2.557-.801-3.344-1.674C93.49 89.61 93 88.412 93 86.965c0-1.422.418-2.572 1.253-3.45.835-.878 1.835-1.515 3.217-1.515 1.382 0 2.392.536 3.187 1.414 1.025 1.131 1.303 2.297 1.343 3.528a.406.406 0 0 1-.111.296.39.39 0 0 1-.283.123H93.78zm3.686-4.575c-1.02.008-1.779.471-2.438 1.065-.66.593-1.104 1.715-1.212 2.755h7.294a4.449 4.449 0 0 0-1.133-2.655c-.58-.644-1.185-1.18-2.507-1.17l-.004.005zM51.351 83.21v8.42a.38.38 0 0 1-.386.37.38.38 0 0 1-.386-.37v-8.42h-2.205a.367.367 0 0 1-.374-.359c0-.198.167-.359.374-.359h2.205v-3.119c.001-.206.175-.372.39-.373h.008c.206 0 .373.16.374.358v3.133h2.275c.207 0 .374.16.374.359a.367.367 0 0 1-.374.359l-2.275.001zM62.776 82.63c-1.536-.198-2.996.278-4.001 1.823V75.35c-.001-.193-.168-.348-.375-.349h-.008c-.216 0-.39.163-.392.364v16.272c0 .199.174.36.387.36.214 0 .386-.161.387-.36V86.14c0-1.54 2.097-3.2 3.998-2.803 1.226.255 2.45 1.387 2.446 3.197v5.106c0 .2.174.36.387.361.214 0 .387-.162.388-.36v-5.093c.112-1.553-1.039-3.637-3.217-3.918zM111.22 91.955c1.536.21 3-.297 4.004-1.939v1.392c.001.205.17.37.376.37h.009a.39.39 0 0 0 .391-.386v-9.01a.386.386 0 0 0-.388-.382.387.387 0 0 0-.388.382l.048 4.775c0 2.477-1.956 4.461-4.003 4.031-1.23-.258-2.5-1.453-2.495-3.38v-5.426a.387.387 0 0 0-.774 0v5.41c-.001 2.022 1.038 3.865 3.22 4.163zM132.038 82.047c-1.387-.206-3.137.44-3.868 2.552-.425-1.22-1.384-2.345-2.77-2.552-1.41-.21-2.765.255-3.688 1.895v-1.393c-.001-.205-.155-.37-.345-.371h-.008c-.198 0-.358.173-.359.387v9.006c0 .211.159.382.355.383.196 0 .355-.171.355-.383l-.043-4.772c0-2.478 1.806-4.417 3.688-3.988 1.085.249 2.204 1.364 2.283 3.162v5.598a.265.265 0 0 0 0 .041c0 .21.217.383.413.383.196 0 .355-.171.355-.383v-1.301c0-.858.007-1.986.007-2.861 0-2.675 1.12-5.046 3.58-4.637 1.14.19 2.292 1.455 2.29 3.379v5.425c0 .21.158.382.354.383.196 0 .355-.172.356-.383v-5.408c.106-1.65-.954-3.864-2.955-4.162zM89 82.444a.425.425 0 0 0-.122-.304.35.35 0 0 0-.275-.08c-1.347.04-2.62 1.357-2.948 2.363V82.38c0-.21-.143-.38-.318-.38h-.007c-.182 0-.33.178-.33.397v9.211c0 .216.147.391.327.392.181 0 .327-.176.328-.392l.02-4.61c0-2.212 1.424-4.088 3.071-4.182.15-.028.26-.186.254-.368v-.004z"/>
        </g>
    </g>
</svg>
