<svg xmlns="http://www.w3.org/2000/svg" xmlns:xlink="http://www.w3.org/1999/xlink" width="70" height="70" viewBox="0 0 70 70">
    <defs>
        <path id="a" d="M.482.42h16.396v41.568H.482z"/>
    </defs>
    <g fill="none" fill-rule="evenodd">
        <path fill="#337AB7" d="M23.595 38.072a1.331 1.331 0 0 0-1.746.677 8.68 8.68 0 0 0-.695 2.647l-1.992 19.517h-3.255l-2.015-19.53a8.978 8.978 0 0 0-.688-2.625.657.657 0 0 0-.076-.155c-.25-.459-1.524-2.83-1.969-4.45-.545-2.029-.65-6.254-.288-6.994.337-.335.484-.468.821-.717.824-.606 1.772-1.115 2.479-1.459l2.27 3.123a1.34 1.34 0 0 0 1.07.541c.42 0 .82-.203 1.07-.543l2.904-3.993a1.35 1.35 0 0 0-.294-1.86 1.348 1.348 0 0 0-1.861.292l-1.83 2.511-1.806-2.496c-.343-.488-1.004-.68-1.594-.447-.532.221-2.394 1.035-3.979 2.201-.502.37-.744.6-1.177 1.032-1.672 1.672-.681 8.287-.351 9.511v.001c.234.854.797 2.405 2.148 4.94l.033.057c.253.587.41 1.195.465 1.808l2.002 19.616a2.542 2.542 0 0 0 2.541 2.291h3.459a2.543 2.543 0 0 0 2.54-2.29l2.001-19.616a6.04 6.04 0 0 1 .491-1.844 1.334 1.334 0 0 0-.678-1.746M20.757 14.413c.074.672.07 2.834-.885 3.914-.391.443-.928.659-1.664.659-.727-.011-1.267-.226-1.648-.659-.92-1.04-.943-3.172-.874-3.906v-.084c.104-2.226 1.388-2.694 2.494-2.694h.13c1.059 0 2.343.468 2.445 2.683l.002.087zm-2.628 7.24h.213c1.452-.037 2.68-.575 3.548-1.555 1.93-2.176 1.549-5.768 1.533-5.903C23.236 10.361 20.559 9 18.322 9h-.19c-2.228 0-4.9 1.36-5.1 5.185-.053.637-.24 3.915 1.535 5.914.89.992 2.122 1.529 3.562 1.554z"/>
        <g transform="translate(45 22)">
            <mask id="b" fill="#fff">
                <use xlink:href="#a"/>
            </mask>
            <path fill="#337AB7" d="M15.941 3.764a8.847 8.847 0 0 0-1.178-1.032C12.936 1.387 10.777.527 10.764.522a1.305 1.305 0 0 0-1.571.452L7.361 3.49 5.521.99C5.101.397 4.267.264 3.657.694c-.586.425-.717 1.26-.292 1.861L6.267 6.55c.252.34.653.542 1.071.542.419 0 .82-.203 1.072-.544l2.267-3.12c.706.343 1.655.852 2.481 1.458.319.235.465.376.785.685l.035.035c.361.744.257 4.964-.288 6.991-.447 1.628-1.721 3.996-1.991 4.491a.579.579 0 0 0-.047.094 8.678 8.678 0 0 0-.694 2.646L8.966 39.345H5.711L3.719 19.826a9.054 9.054 0 0 0-.695-2.643 1.311 1.311 0 0 0-1.746-.69c-.33.142-.581.407-.709.744-.126.331-.114.69.032 1.003a6.1 6.1 0 0 1 .488 1.841l2.002 19.616a2.546 2.546 0 0 0 2.542 2.291h3.458a2.543 2.543 0 0 0 2.541-2.29l2.001-19.616a6.204 6.204 0 0 1 .461-1.796c.498-.914 1.711-3.233 2.185-5.01.332-1.226 1.329-7.845-.338-9.512" mask="url(#b)"/>
        </g>
        <path fill="#337AB7" d="M54.746 14.413c.073.672.068 2.836-.886 3.914-.382.433-.92.648-1.665.659-.727-.011-1.266-.226-1.648-.659-.919-1.04-.942-3.172-.873-3.906l.001-.084c.102-2.226 1.387-2.694 2.493-2.694h.131c1.058 0 2.343.468 2.445 2.683l.002.087zm-2.632 7.24H52.326c1.44-.025 2.671-.562 3.564-1.555 1.937-2.184 1.536-5.883 1.533-5.903C57.236 10.361 54.56 9 52.323 9h-.19c-2.229 0-4.9 1.36-5.1 5.185-.055.637-.24 3.915 1.532 5.913.87.98 2.096 1.518 3.55 1.555zM39.979 37.879h.002-.002zm1.94-4.982c-.5 1.82-1.995 4.572-2.08 4.72l-.056.084a9.246 9.246 0 0 0-.785 2.889l-2.104 20.88-3.654.029-2.133-20.91a8.94 8.94 0 0 0-.734-2.778.678.678 0 0 0-.076-.156c-.27-.491-1.634-3.03-2.111-4.767-.58-2.223-.667-6.767-.268-7.513.38-.381.532-.517.896-.782.725-.54 1.664-1.09 2.727-1.601L34 26.377a1.34 1.34 0 0 0 1.07.54c.419 0 .819-.202 1.07-.543l2.458-3.381c1.084.527 2 1.065 2.73 1.602.37.268.519.405.88.757.427.689.326 5.315-.29 7.545zm1.026-10.444c-1.114-.823-2.552-1.623-4.158-2.313l-.09-.04a1.307 1.307 0 0 0-1.57.452l-2.055 2.787-2.02-2.782a1.338 1.338 0 0 0-1.566-.46c-.022.008-2.322.937-4.257 2.357a9.112 9.112 0 0 0-1.237 1.09c-1.777 1.78-.695 8.766-.337 10.057.618 2.252 2.317 5.298 2.322 5.306.273.624.445 1.28.513 1.949l2.133 20.907a2.617 2.617 0 0 0 2.623 2.363h3.684a2.635 2.635 0 0 0 2.623-2.362l2.133-20.908a6.31 6.31 0 0 1 .505-1.934c.527-.97 1.81-3.43 2.33-5.322.35-1.3 1.409-8.31-.34-10.056-.454-.455-.707-.695-1.236-1.091zM32.69 10.695l.002-.086c.114-2.571 1.737-2.954 2.753-2.954h.142c.957 0 2.58.383 2.694 2.942v.086c.082.79.065 3.092-.954 4.235-.438.492-1.034.731-1.854.731-.802-.011-1.398-.25-1.828-.733-1.02-1.129-1.035-3.43-.954-4.221m2.688 7.633H35.602c1.537-.025 2.793-.576 3.73-1.637 1.808-2.026 1.693-5.292 1.616-6.236C40.75 6.428 37.943 5 35.598 5h-.213c-2.343 0-5.15 1.428-5.347 5.446-.08.948-.201 4.2 1.614 6.232.932 1.057 2.186 1.612 3.727 1.65"/>
    </g>
</svg>
