<svg xmlns="http://www.w3.org/2000/svg" width="89" height="90" viewBox="0 0 89 90">
    <g fill="none" fill-rule="evenodd">
        <path fill="#555" d="M69.151 59.057l-22.517-10.22 28.599-36.932-6.082 47.152zm-27.747.121l2.49-5.84 2.91 1.32-5.4 4.52zm20.016-45.78C49.038 23.876 33.645 37.451 28.832 41.71l-18.043-5.402c16.65-7.554 36.449-16.519 50.63-22.91zM40.479 48.245c-.14.182-.194.402-.282.608-.055.095-.14.165-.184.27L35.51 59.681l-3.146-14.113c9.243-8.18 21.378-18.776 31.188-27.117L40.479 48.245zM81.653 1.443C81.123.334 80.822-.24 79.225.095a2.63 2.63 0 0 0-1.49.371c.05-.034.097-.075.147-.102-.15.077-.326.176-.53.302-2.13.787-5.504 2.304-11.032 4.787-7.125 3.203-16.616 7.49-26.108 11.782C21.235 25.82 2.27 34.43 2.27 34.43a2.618 2.618 0 0 0 .33 4.89l24.66 7.38 4.917 22.048c.009.037.032.067.042.104.025.097.073.184.11.279.084.208.183.401.313.578.034.047.042.103.08.148.033.039.082.052.117.089.21.226.45.417.728.557.034.016.061.045.095.06a2.602 2.602 0 0 0 1.068.232h.002c.006 0 .01-.003.016-.003a2.58 2.58 0 0 0 .796-.139c.083-.027.156-.074.236-.11.18-.08.35-.171.506-.29.037-.027.08-.037.116-.066l15.656-13.103c.01-.008.014-.02.024-.03l18.127 8.23a2.601 2.601 0 0 0 2.35-.097 2.62 2.62 0 0 0 1.318-1.953L81.53 3.895c.704-1.168.13-2.436.122-2.452z"/>
        <path fill="#555" d="M2.49 73.751a2.48 2.48 0 0 1-1.76-.73 2.498 2.498 0 0 1 0-3.53l16.909-16.94a2.487 2.487 0 0 1 3.522 0 2.499 2.499 0 0 1 0 3.528L4.251 73.02a2.48 2.48 0 0 1-1.76.731M8.593 83.027a2.48 2.48 0 0 1-1.76-.73 2.498 2.498 0 0 1 0-3.53L23.74 61.826a2.487 2.487 0 0 1 3.523 0 2.499 2.499 0 0 1 0 3.529l-16.91 16.941a2.48 2.48 0 0 1-1.76.731M5.398 55.795a2.48 2.48 0 0 1-1.761-.73 2.498 2.498 0 0 1 0-3.53l10.782-10.803a2.487 2.487 0 0 1 3.523 0 2.499 2.499 0 0 1 0 3.529L7.159 55.064a2.48 2.48 0 0 1-1.761.731"/>
        <path fill="#337AB7" d="M86.556 62.515a18.13 18.13 0 0 0-6.626-6.638c-2.79-1.63-5.828-2.445-9.132-2.445-3.305 0-6.343.815-9.133 2.445a18.129 18.129 0 0 0-6.625 6.638c-1.627 2.795-2.44 5.84-2.44 9.15 0 3.31.813 6.355 2.44 9.15a18.129 18.129 0 0 0 6.625 6.637c2.79 1.63 5.828 2.446 9.133 2.446 3.304 0 6.343-.815 9.132-2.446a18.13 18.13 0 0 0 6.626-6.637c1.627-2.795 2.44-5.84 2.44-9.15 0-3.31-.813-6.355-2.44-9.15"/>
        <path fill="#FFF" d="M81.69 67.722L71.263 78.17l-1.96 1.964c-.265.266-.614.399-.98.399-.364 0-.713-.15-.979-.4l-1.96-1.963-5.213-5.223a1.372 1.372 0 0 1-.399-.982c0-.366.15-.715.399-.981l1.96-1.963c.265-.267.614-.4.979-.4s.714.15.98.4l4.234 4.258 9.448-9.482c.265-.266.614-.4.98-.4.365 0 .713.15.979.4l1.96 1.963c.265.266.398.616.398.982s-.133.715-.399.981"/>
    </g>
</svg>
