<svg width="60" height="60" viewBox="0 0 60 60" fill="none" xmlns="http://www.w3.org/2000/svg">
<g id="Notification_Empty">
<g id="Group 10">
<g id="Group 3">
<mask id="mask0" mask-type="alpha" maskUnits="userSpaceOnUse" x="5" y="2" width="50" height="57">
<path id="Clip 2" fill-rule="evenodd" clip-rule="evenodd" d="M5 2.02686H54.9437V58.5366H5V2.02686Z" fill="white"/>
</mask>
<g mask="url(#mask0)">
<path id="Fill 1" fill-rule="evenodd" clip-rule="evenodd" d="M27.5459 8.56502C27.5407 8.5648 27.5355 8.56447 27.5305 8.56425C27.362 8.55552 27.188 8.54646 27.0103 8.54646C25.2459 8.54985 23.5069 8.83231 21.8337 9.38665C22.0478 6.68348 24.2892 4.54721 27.0115 4.54448H27.0203C28.1702 4.54448 29.2769 4.93292 30.1759 5.64542C29.1781 6.49979 28.2952 7.4798 27.5459 8.56502ZM39.8835 29.9677C39.8714 29.9678 39.8594 29.9678 39.8472 29.9678C38.2259 29.9678 36.6433 29.6517 35.1425 29.0281C34.8661 28.9136 34.5579 28.903 34.274 28.9983L28.1409 31.0737L29.963 25.9924C30.1062 25.5937 30.0424 25.1523 29.7924 24.8113C28.1976 22.6435 27.3245 19.9607 27.3342 17.256C27.3342 10.2469 32.9642 4.54448 39.8844 4.54448C46.8047 4.54448 52.4348 10.2469 52.4348 17.2557C52.4273 24.2577 46.7972 29.9603 39.8835 29.9677ZM27.4045 25.7532L25.5783 30.8444C25.3352 31.5143 25.4301 32.2641 25.8324 32.8502C26.2347 33.4362 26.8955 33.7875 27.6002 33.7902C27.8342 33.7863 28.0632 33.7541 28.2867 33.6802L34.636 31.5313C36.7874 32.3519 39.1154 32.6495 41.4003 32.3981V35.8833L41.4008 35.903C41.6577 40.2465 43.4196 44.3849 46.3618 47.5563C46.5357 47.7431 46.5811 48.0152 46.4752 48.2553C46.3862 48.4681 46.1809 48.6009 45.9451 48.595L8.06893 48.5951C7.84242 48.6017 7.6366 48.4679 7.54543 48.2504C7.44393 48.0183 7.48897 47.7486 7.66031 47.5633C10.6035 44.3901 12.3653 40.249 12.621 35.9029L12.6215 25.6388C12.6273 21.8135 14.0847 18.2005 16.7251 15.4653C19.2424 12.8578 22.5716 11.321 26.1485 11.1039C24.0494 15.8658 24.517 21.4152 27.4045 25.7532ZM32.9969 51.1126C32.7233 52.4382 32.0273 53.6415 31.0115 54.5323C29.9008 55.5063 28.48 56.0439 27.011 56.0459C25.5418 56.0439 24.121 55.5063 23.0104 54.5323C21.9945 53.6415 21.2985 52.4382 21.0249 51.1126H32.9969ZM48.3598 4.6533C43.5504 1.34634 37.2643 1.15589 32.2733 4.14545C30.8689 2.79512 28.9763 2.02686 27.037 2.02686C27.0283 2.02686 27.0194 2.02686 27.0105 2.02686C22.781 2.03177 19.3361 5.52088 19.3313 9.80533C19.3314 10.0125 19.3399 10.2214 19.3565 10.4289C16.6182 11.8403 14.3163 13.9772 12.6896 16.6212C11.0232 19.3291 10.1403 22.447 10.136 25.6384V35.8716C9.87302 39.5895 8.34328 43.1351 5.82679 45.8572C4.98078 46.7811 4.76311 48.1209 5.27087 49.2672C5.75761 50.3999 6.85998 51.1239 8.07916 51.1126H18.5059C19.1305 55.3653 22.7369 58.5366 27.011 58.5366C31.2849 58.5366 34.8914 55.3653 35.5159 51.1126H45.9411C45.9511 51.1127 45.9612 51.1127 45.9711 51.1127C47.1791 51.1127 48.2681 50.391 48.7495 49.2705C49.2587 48.1197 49.0404 46.7787 48.1928 45.8541C45.6878 43.1291 44.1586 39.5842 43.886 35.8713V31.9191C49.4797 30.369 53.7189 25.6629 54.72 19.8625C55.7355 13.9784 53.2391 8.00849 48.3598 4.6533Z" fill="#999999"/>
</g>
</g>
<path id="Fill 4" fill-rule="evenodd" clip-rule="evenodd" d="M32.5804 17C32.5804 17.32 32.32 17.5805 32 17.5805C31.68 17.5805 31.4196 17.32 31.4196 17C31.4196 16.68 31.68 16.4196 32 16.4196C32.32 16.4196 32.5804 16.68 32.5804 17ZM32 14C30.3458 14 29 15.3458 29 17C29 18.6542 30.3458 20 32 20C33.6542 20 35 18.6542 35 17C35 15.3458 33.6542 14 32 14Z" fill="#999999"/>
<path id="Fill 6" fill-rule="evenodd" clip-rule="evenodd" d="M40.5805 17C40.5805 17.32 40.3201 17.5805 40 17.5805C39.68 17.5805 39.4196 17.32 39.4196 17C39.4196 16.68 39.68 16.4196 40 16.4196C40.3201 16.4196 40.5805 16.68 40.5805 17ZM40 14C38.3458 14 37 15.3458 37 17C37 18.6542 38.3458 20 40 20C41.6542 20 43 18.6542 43 17C43 15.3458 41.6542 14 40 14Z" fill="#999999"/>
<path id="Fill 8" fill-rule="evenodd" clip-rule="evenodd" d="M48.5805 17C48.5805 17.32 48.3201 17.5805 48 17.5805C47.68 17.5805 47.4196 17.32 47.4196 17C47.4196 16.68 47.68 16.4196 48 16.4196C48.3201 16.4196 48.5805 16.68 48.5805 17ZM48 14C46.3458 14 45 15.3458 45 17C45 18.6542 46.3458 20 48 20C49.6542 20 51 18.6542 51 17C51 15.3458 49.6542 14 48 14Z" fill="#999999"/>
</g>
</g>
</svg>
