<svg width="40" height="34" viewBox="0 0 40 34" fill="none" xmlns="http://www.w3.org/2000/svg">
<g clip-path="url(#clip0)">
<path d="M27.1987 18.3147C28.1641 18.6094 29.1715 18.7357 30.1368 18.7357C31.6059 18.7357 32.8651 18.3989 33.8304 17.9779C32.907 21.3882 30.6825 27.2404 26.2753 27.8719C25.8556 27.9141 25.5198 28.2509 25.4359 28.6298L24.4705 32.0822C24.3866 32.3769 24.4285 32.6716 24.5964 32.9242C24.7643 33.1769 25.0162 33.3453 25.3519 33.3874C25.6038 33.4716 25.9396 33.5137 26.2753 33.5137C31.5639 33.5137 36.8105 27.9562 39.0351 19.9988C40.3362 15.3254 40.714 8.33643 37.524 3.91568C35.7192 1.43164 33.1169 0.126468 29.7591 0.000159323L29.7171 0.000159319C25.5618 0.000158956 21.8682 2.82102 20.7769 6.82075C20.1054 9.22058 20.3992 11.7467 21.6164 13.9361C22.7916 16.0833 24.8063 17.6411 27.1987 18.3147Z" fill="#6D6D6D"/>
<path d="M1.17499 13.894C2.3922 16.0412 4.36492 17.599 6.75736 18.3147C7.72273 18.6094 8.73008 18.7357 9.69545 18.7357C11.1645 18.7357 12.4237 18.3989 13.389 17.9779C12.4656 21.3882 10.2411 27.2404 5.83396 27.8719C5.41423 27.9141 5.07845 28.2509 4.9945 28.6298L4.02913 32.0822C3.94519 32.3769 3.98716 32.6716 4.15505 32.9242C4.32294 33.1769 4.57478 33.3453 4.91056 33.3874C5.20437 33.4716 5.54015 33.5137 5.87593 33.5137C11.1645 33.5137 16.4111 27.9562 18.6356 19.9988C19.9368 15.3254 20.3145 8.33643 17.1246 3.91568C15.3198 1.43164 12.7175 0.126468 9.35967 0.000159323L9.3177 0.000159319C5.1624 0.000158956 1.4688 2.82102 0.377509 6.82075C-0.336029 9.22058 -0.0422192 11.7467 1.17499 13.894Z" fill="#6D6D6D"/>
</g>
<defs>
<clipPath id="clip0">
<rect width="40" height="33.5135" fill="white" transform="translate(40 33.5137) rotate(-180)"/>
</clipPath>
</defs>
</svg>
