<svg width="40" height="34" viewBox="0 0 40 34" fill="none" xmlns="http://www.w3.org/2000/svg">
<g clip-path="url(#clip0)">
<path d="M12.8013 15.199C11.8359 14.9043 10.8285 14.7779 9.86317 14.7779C8.39412 14.7779 7.13494 15.1148 6.16957 15.5358C7.09297 12.1255 9.31752 6.27326 13.7247 5.64172C14.1444 5.59962 14.4802 5.2628 14.5641 4.88388L15.5295 1.43148C15.6134 1.13676 15.5715 0.842048 15.4036 0.589434C15.2357 0.336819 14.9838 0.16841 14.6481 0.126307C14.3962 0.0421024 14.0604 0 13.7247 0C8.43609 0 3.1895 5.55752 0.964948 13.5149C-0.336206 18.1882 -0.71396 25.1772 2.47597 29.598C4.28079 32.082 6.8831 33.3872 10.2409 33.5135H10.2829C14.4382 33.5135 18.1318 30.6927 19.2231 26.6929C19.8946 24.2931 19.6008 21.7669 18.3836 19.5776C17.2084 17.4304 15.1937 15.8726 12.8013 15.199Z" fill="#6D6D6D"/>
<path d="M38.825 19.6197C37.6078 17.4725 35.6351 15.9147 33.2426 15.199C32.2773 14.9043 31.2699 14.7779 30.3045 14.7779C28.8355 14.7779 27.5763 15.1148 26.611 15.5358C27.5344 12.1255 29.7589 6.27326 34.166 5.64172C34.5858 5.59962 34.9215 5.2628 35.0055 4.88388L35.9709 1.43148C36.0548 1.13676 36.0128 0.842048 35.8449 0.589434C35.6771 0.336819 35.4252 0.16841 35.0894 0.126307C34.7956 0.0421024 34.4599 0 34.1241 0C28.8355 0 23.5889 5.55752 21.3644 13.5149C20.0632 18.1882 19.6855 25.1772 22.8754 29.598C24.6802 32.082 27.2825 33.3872 30.6403 33.5135H30.6823C34.8376 33.5135 38.5312 30.6927 39.6225 26.6929C40.336 24.2931 40.0422 21.7669 38.825 19.6197Z" fill="#6D6D6D"/>
</g>
<defs>
<clipPath id="clip0">
<rect width="40" height="33.5135" fill="white"/>
</clipPath>
</defs>
</svg>
