<svg xmlns="http://www.w3.org/2000/svg" xmlns:xlink="http://www.w3.org/1999/xlink" width="14" height="13" viewBox="0 0 14 13">
    <defs>
        <path id="a" d="M0 .025h10.5v5.546H0z"/>
        <path id="c" d="M.022 0h3.943v6.5H.022z"/>
    </defs>
    <g fill="none" fill-rule="evenodd">
        <path fill="#FFF" d="M13.204 8.79a7.897 7.897 0 0 0-2.897-1.19c-.223-.043-.337.27-.145.398l.009.006c.743.497 1.204 1.396 1.204 2.346v1.79c0 .475.363.86.81.86h1.116c.386 0 .699-.332.699-.742V10.35c0-.634-.305-1.232-.796-1.56"/>
        <g transform="translate(0 7.429)">
            <mask id="b" fill="#fff">
                <use xlink:href="#a"/>
            </mask>
            <path fill="#FFF" d="M9.704 1.361c-2.66-1.78-6.248-1.78-8.908 0C.306 1.69 0 2.287 0 2.921v1.823c0 .457.35.827.78.827h8.94c.43 0 .78-.37.78-.827V2.922c0-.635-.305-1.233-.796-1.56" mask="url(#b)"/>
        </g>
        <g transform="translate(7.848)">
            <mask id="d" fill="#fff">
                <use xlink:href="#c"/>
            </mask>
            <path fill="#FFF" d="M.022 6.346c.283.091.575.154.88.154 1.689 0 3.063-1.458 3.063-3.25S2.59 0 .902 0C.748 0 .597.016.45.044.264.078.19.317.317.464A4.271 4.271 0 0 1 1.34 3.25c0 1.233-.515 2.33-1.318 3.096" mask="url(#d)"/>
        </g>
        <path fill="#FFF" d="M7.416.952c1.196 1.27 1.196 3.327 0 4.596a2.94 2.94 0 0 1-4.331 0c-1.196-1.27-1.196-3.327 0-4.596a2.94 2.94 0 0 1 4.33 0"/>
    </g>
</svg>
