<svg xmlns="http://www.w3.org/2000/svg" xmlns:xlink="http://www.w3.org/1999/xlink" width="536" height="541" viewBox="0 0 536 541">
    <defs>
        <path id="a" d="M0 .469h514v464H0z"/>
        <path id="c" d="M.5.8h219.2V220H.5z"/>
    </defs>
    <g fill="none" fill-rule="evenodd">
        <g transform="translate(5 18.531)">
            <mask id="b" fill="#fff">
                <use xlink:href="#a"/>
            </mask>
            <path fill="#555" d="M46 32.469h422c7.72 0 14 6.28 14 14v54H32v-54c0-7.72 6.28-14 14-14zm-14 100h450v286c0 7.72-6.28 14-14 14H46c-7.72 0-14-6.28-14-14v-286zm436-132H46c-25.364 0-46 20.636-46 46v372c0 25.364 20.636 46 46 46h422c25.364 0 46-20.636 46-46v-372c0-25.364-20.636-46-46-46z" mask="url(#b)"/>
        </g>
        <path fill="#555" d="M181 101c8.822 0 16-7.178 16-16s-7.178-16-16-16-16 7.178-16 16 7.178 16 16 16M131 101c8.822 0 16-7.178 16-16s-7.178-16-16-16-16 7.178-16 16 7.178 16 16 16M81 101c8.822 0 16-7.178 16-16s-7.178-16-16-16-16 7.178-16 16 7.178 16 16 16M186.001 256.262a6 6 0 0 1-.078-10.707l73.328-37.799a5.991 5.991 0 0 1 5.498 0l73.328 37.8a5.999 5.999 0 0 1-.078 10.706l-73.328 36.45a5.987 5.987 0 0 1-5.342 0l-73.328-36.45zm62.165 121.125a6.003 6.003 0 0 1-6.001 6 5.984 5.984 0 0 1-2.67-.627l-60.826-30.234a6 6 0 0 1-3.329-5.374v-55.608a5.998 5.998 0 0 1 8.67-5.373l60.826 30.236a6.002 6.002 0 0 1 3.33 5.374v55.606zm97.654-90.942a5.997 5.997 0 0 1 2.84 5.099v55.608a6 6 0 0 1-3.329 5.374l-60.826 30.234a6.005 6.005 0 0 1-5.831-.272 6 6 0 0 1-2.839-5.1V321.78a6 6 0 0 1 3.329-5.375l60.825-30.235a5.992 5.992 0 0 1 5.831.274zm30.509 71.404V244.147a16.409 16.409 0 0 0-8.891-14.585l-90.729-46.769a32.105 32.105 0 0 0-29.418 0l-90.73 46.768a16.41 16.41 0 0 0-8.891 14.585V357.85a16.41 16.41 0 0 0 9.105 14.692l97.921 48.675a16.409 16.409 0 0 0 14.608 0l97.921-48.675a16.407 16.407 0 0 0 9.104-14.692z"/>
        <g transform="translate(313 315.531)">
            <mask id="d" fill="#fff">
                <use xlink:href="#c"/>
            </mask>
            <path fill="#337AB7" d="M205 55.4c-9.8-16.8-23.1-30.1-39.9-39.9C148.3 5.7 130 .8 110.1.8s-38.2 4.9-55 14.7C38.3 25.3 25 38.6 15.2 55.4 5.4 72.2.5 90.5.5 110.4s4.9 38.2 14.7 55c9.8 16.8 23.1 30.1 39.9 39.9 16.8 9.8 35.1 14.7 55 14.7s38.2-4.9 55-14.7c16.8-9.8 30.1-23.1 39.9-39.9 9.8-16.8 14.7-35.1 14.7-55s-4.9-38.2-14.7-55" mask="url(#d)"/>
        </g>
        <path fill="#FFF" d="M488.7 402.231l-62.8 62.8-11.8 11.8c-1.6 1.6-3.7 2.4-5.9 2.4s-4.3-.9-5.9-2.4l-11.8-11.8-31.4-31.4c-1.6-1.6-2.4-3.7-2.4-5.9s.9-4.3 2.4-5.9l11.8-11.8c1.6-1.6 3.7-2.4 5.9-2.4s4.3.9 5.9 2.4l25.5 25.6 56.9-57c1.6-1.6 3.7-2.4 5.9-2.4s4.3.9 5.9 2.4l11.8 11.8c1.6 1.6 2.4 3.7 2.4 5.9s-.8 4.3-2.4 5.9"/>
    </g>
</svg>
