<?xml version="1.0" encoding="UTF-8"?>
<svg width="46px" height="54px" viewBox="0 0 46 54" version="1.1" xmlns="http://www.w3.org/2000/svg" xmlns:xlink="http://www.w3.org/1999/xlink">
    <!-- Generator: Sketch 50.2 (55047) - http://www.bohemiancoding.com/sketch -->
    <title>Fill 1 Copy</title>
    <desc>Created with Sketch.</desc>
    <defs>
        <polygon id="path-1" points="0 53.7822581 45.8449953 53.7822581 45.8449953 0.216870968 0 0.216870968"></polygon>
    </defs>
    <g id="Template" stroke="none" stroke-width="1" fill="none" fill-rule="evenodd">
        <g id="Template_modal_1" transform="translate(-376.000000, -2117.000000)">
            <g id="Fill-1" transform="translate(376.000000, 2117.000000)">
                <polygon fill="#999999" points="12.995327 53.783129 20.7425118 53.783129 20.7425118 50.765879 12.995327 50.765879"></polygon>
                <g id="Group-15" stroke-width="1" transform="translate(0.000000, 0.000871)">
                    <path d="M38.9829289,10.9839484 L41.7836967,13.781279 C42.0965403,14.0939565 42.3949953,14.7354242 42.5556682,15.1896339 L42.7608152,15.7701339 L39.7797536,15.7701339 L39.7797536,18.7873839 L42.8238199,18.7873839 L42.8238199,24.2154726 L45.8449953,24.2154726 L45.8449953,16.30665 C45.8449953,14.8236097 44.9561706,12.6832065 43.9044929,11.6326016 L41.1189858,8.8505129 L38.9829289,10.9839484 Z" id="Fill-2" fill="#999999"></path>
                    <mask id="mask-2" fill="white">
                        <use xlink:href="#path-1"></use>
                    </mask>
                    <g id="Clip-5"></g>
                    <polygon id="Fill-4" fill="#999999" mask="url(#mask-2)" points="26.1853365 53.7822581 34.3364929 53.7822581 34.3364929 50.7650081 26.1853365 50.7650081"></polygon>
                    <polygon id="Fill-6" fill="#999999" mask="url(#mask-2)" points="12.995109 3.23433871 18.0206635 3.23433871 18.0206635 0.21708871 12.995109 0.21708871"></polygon>
                    <polygon id="Fill-7" fill="#999999" mask="url(#mask-2)" points="42.8240379 37.773 45.8449953 37.773 45.8449953 29.651879 42.8240379 29.651879"></polygon>
                    <path d="M27.2515118,12.251925 L27.2515118,16.3067153 C27.2515118,17.6745702 28.3657583,18.7874492 29.7355118,18.7874492 L34.3366019,18.7874492 L34.3366019,15.7701992 L30.2724692,15.7701992 L30.2724692,12.251925 L27.2515118,12.251925 Z" id="Fill-8" fill="#999999" mask="url(#mask-2)"></path>
                    <path d="M7.55197915,50.764921 L3.02108815,50.764921 L3.02108815,43.2097113 L-8.72037915e-05,43.2097113 L-8.72037915e-05,51.3014371 C-8.72037915e-05,52.6692919 1.11415924,53.782171 2.48369479,53.782171 L7.55197915,53.782171 L7.55197915,50.764921 Z" id="Fill-9" fill="#999999" mask="url(#mask-2)"></path>
                    <polygon id="Fill-10" fill="#999999" mask="url(#mask-2)" points="0 24.2155161 3.02095735 24.2155161 3.02095735 16.0943952 0 16.0943952"></polygon>
                    <path d="M42.8238635,43.209646 L42.8238635,50.7648556 L39.7797972,50.7648556 L39.7797972,53.7823234 L43.3612569,53.7823234 C44.7307924,53.7823234 45.8448209,52.6692266 45.8448209,51.3013718 L45.8448209,43.209646 L42.8238635,43.209646 Z" id="Fill-11" fill="#999999" mask="url(#mask-2)"></path>
                    <path d="M3.02104455,10.657771 L3.02104455,3.23429516 L7.55193555,3.23429516 L7.55193555,0.216827419 L2.48386919,0.216827419 C1.11411564,0.216827419 8.72037915e-05,1.32970645 8.72037915e-05,2.69756129 L8.72037915e-05,10.657771 L3.02104455,10.657771 Z" id="Fill-12" fill="#999999" mask="url(#mask-2)"></path>
                    <polygon id="Fill-13" fill="#999999" mask="url(#mask-2)" points="0 37.7732177 3.02095735 37.7732177 3.02095735 29.6520968 0 29.6520968"></polygon>
                    <path d="M23.4639024,3.23422984 L27.2515991,3.23422984 L27.2515991,6.81543145 L30.2725564,6.81543145 L30.2725564,3.297375 L30.8535517,3.50205242 C31.3085374,3.66231048 31.9507934,3.96039919 32.263855,4.27307661 L35.1339498,7.13986694 L37.2700066,5.00643145 L34.4151725,2.15488306 C33.3632768,1.10449597 31.2202436,0.216979839 29.735381,0.216979839 L23.4639024,0.216979839 L23.4639024,3.23422984 Z" id="Fill-14" fill="#999999" mask="url(#mask-2)"></path>
                </g>
            </g>
        </g>
    </g>
</svg>