<svg width="50" height="50" viewBox="0 0 50 50" fill="none" xmlns="http://www.w3.org/2000/svg">
<g clip-path="url(#clip0)">
<path d="M42.7 1.7C42.7 0.7 41.9 0 41 0H14.2V8.6C14.2 9.6 13.4 10.3 12.5 10.3H3V48.2C3 49.2 3.8 49.9 4.7 49.9H40.9C41.9 49.9 42.6 49.1 42.6 48.2V1.7H42.7Z" fill="#EFEFEF"/>
<path d="M17.2 47.4L18.4 38.9L23.9 40.7L25.7 46.2L17.2 47.4Z" fill="#F28F02"/>
<path d="M36.7 20.6L39.1 18.2L46.4 25.5L44 27.9L36.7 20.6Z" fill="#F28F02"/>
<path d="M43.5 15.4C43.2 15.4 42.9 15.5 42.6 15.6C41.8 15.8 41 16.3 40.4 16.9L39.2 18.1L46.5 25.4L47.7 24.2C49.3 22.6 49.7 20.3 48.7 18.3C47.7 16.3 45.7 15.2 43.5 15.4Z" fill="#CECAAD"/>
<path d="M36.7 20.6L18.4 38.9L23.3 41.3L34.3 30.3L23.3 41.3L24.4 43.5L25.7 46.2L43.4 28.5L44 27.9L42.6 26.5L36.7 20.6ZM36.8 27.8L38 26.6L36.8 27.8Z" fill="#FAC10C"/>
<path d="M14.2 8.6V0L3 10.3H12.5C13.4 10.3 14.2 9.6 14.2 8.6Z" fill="#F14743"/>
<path d="M27.1 23.3H9.00001C8.50001 23.3 8.10001 22.9 8.10001 22.4C8.10001 21.9 8.50001 21.5 9.00001 21.5H27.1C27.6 21.5 28 21.9 28 22.4C28 22.9 27.6 23.3 27.1 23.3Z" fill="#CECAAD"/>
<path d="M22 28.4H9.00001C8.50001 28.4 8.10001 28 8.10001 27.5C8.10001 27 8.50001 26.6 9.00001 26.6H22C22.5 26.6 22.9 27 22.9 27.5C22.9 28 22.4 28.4 22 28.4Z" fill="#CECAAD"/>
<path d="M16.8 33.6H9.00001C8.50001 33.6 8.10001 33.2 8.10001 32.7C8.10001 32.2 8.50001 31.8 9.00001 31.8H16.8C17.3 31.8 17.7 32.2 17.7 32.7C17.7 33.2 17.3 33.6 16.8 33.6Z" fill="#CECAAD"/>
<path d="M32.3 18.1H15.9C15.4 18.1 15 17.7 15 17.2C15 16.7 15.4 16.3 15.9 16.3H32.3C32.8 16.3 33.2 16.7 33.2 17.2C33.2 17.7 32.8 18.1 32.3 18.1Z" fill="#CECAAD"/>
<path d="M12.5 18.1H9.00001C8.50001 18.1 8.10001 17.7 8.10001 17.2C8.10001 16.7 8.50001 16.3 9.00001 16.3H12.4C12.9 16.3 13.3 16.7 13.3 17.2C13.3 17.7 13 18.1 12.5 18.1Z" fill="#CECAAD"/>
</g>
<defs>
<clipPath id="clip0">
<rect width="46.2" height="50" fill="white" transform="translate(3)"/>
</clipPath>
</defs>
</svg>
